<?xml version="1.0" encoding="utf-8"?>
<!-- Generator: Adobe Illustrator 16.0.0, SVG Export Plug-In . SVG Version: 6.00 Build 0)  -->
<!DOCTYPE svg PUBLIC "-//W3C//DTD SVG 1.1//EN" "http://www.w3.org/Graphics/SVG/1.1/DTD/svg11.dtd">
<svg version="1.1" xmlns="http://www.w3.org/2000/svg" xmlns:xlink="http://www.w3.org/1999/xlink" x="0px" y="0px"
	 width="1508.923px" height="1422.555px" viewBox="0 0 1508.923 1422.555" enable-background="new 0 0 1508.923 1422.555"
	 xml:space="preserve">
<g id="Idle">
	<g id="legs">
	</g>
	<g id="head">
	</g>
	<g id="body">
	</g>
	<g id="arms">
	</g>
	<g id="weapon">
	</g>
	<g id="Layer_12">
	</g>
</g>
<g id="Attack">
	<g id="legs_copy">
	</g>
	<g id="head_copy">
	</g>
	<g id="body_copy">
	</g>
	<g id="arms_copy">
	</g>
	<g id="weapon_copy">
	</g>
	<g id="Layer_19">
	</g>
</g>
<g id="Hurt">
	<g id="legs_copy_2">
	</g>
	<g id="head_copy_2">
	</g>
	<g id="body_copy_2">
	</g>
	<g id="arms_copy_2">
	</g>
	<g id="weapon_copy_2">
	</g>
</g>
<g id="Death_1">
	<g id="legs_1_">
	</g>
	<g id="head_x5C_">
	</g>
	<g id="body_1_">
	</g>
	<g id="arms_2_">
	</g>
</g>
<g id="Death_2">
	<g id="legs_2_">
		<path stroke="#000000" stroke-width="5.1462" stroke-linecap="round" stroke-linejoin="round" stroke-miterlimit="10" d="
			M980.092,1375.402c3.602,2.509,119.588,5.289,119.588,5.289l14.408-29.317l-179.367-69.157
			C934.721,1282.217,965.033,1364.913,980.092,1375.402z"/>
		
			<path fill="#242F44" stroke="#000000" stroke-width="5.1462" stroke-linecap="round" stroke-linejoin="round" stroke-miterlimit="10" d="
			M803.77,1118.734l11.795,140.263c0,0,51.436-10,99.436,34s-142,44.654-142,44.654l-29.17-95.514L803.77,1118.734z"/>
		
			<path fill="#242F44" stroke="#000000" stroke-width="5.1462" stroke-linecap="round" stroke-linejoin="round" stroke-miterlimit="10" d="
			M723.027,1159.68c0,0-75.115,201.427-34.115,217.698s311-1.48,311-1.48l-48-83.544c0,0-67.072-53.296-162.035,0
			c0,0,114.363-65.271,96.506-107.356s-80-19-80-19L723.027,1159.68z"/>
	</g>
	<g id="head_1_">
		<path fill="#181304" stroke="#000000" stroke-width="6" stroke-miterlimit="10" d="M399.594,1205.808
			c0,0,6.211,25.332-27.161,28.876s-50.638-8.781-68.643-22.503l6.162-8.633c0,0-24.335-15.2-38.4-47.83l20.386,0.652
			c0,0-16.363-22.107-22.457-58.602l10.85-1.812c0,0-16.532-38.301-13.255-76.36l19.858,0.531c0,0,12.689-12.048,37.1-23.727
			c24.41-11.68,123.863-38.422,166.536,1.598c42.673,40.019,21.644,90.166,21.644,90.166L399.594,1205.808"/>
		
			<path fill="#E4DDC9" stroke="#000000" stroke-width="6.3457" stroke-linecap="round" stroke-linejoin="round" stroke-miterlimit="10" d="
			M495.533,1012.546l51.339-30.537c0,0,51.943-18.811,60.613,16.916c8.668,35.728,18.761,69.863,18.761,69.863
			s-50.354,28.346-53.093,30.155s-77.662-39.079-82.625-51.091c-4.963-12.014,3.525-34.046,3.525-34.046"/>
		
			<path fill="#E4DDC9" stroke="#000000" stroke-width="6.3457" stroke-linecap="round" stroke-linejoin="round" stroke-miterlimit="10" d="
			M399.397,1218c0,0,88.988,4.208,210.356-57.716l-70.896-138.568l-36.985,12.531c0,0,10.066-26.395,3.419-35.877
			c-6.65-9.481-44.506-15.167-80.115,5.607l44.46,58.247c0,0-35.97,22.952-93.98,13.571c0,0-28.178,8.942-18.678,39.837
			C366.479,1146.529,405.6,1190.132,399.397,1218z"/>
		<path d="M425.936,1202.94c0,0,46.141-2.973,43.999-17.823c-2.141-14.851-51.294-76.476-51.294-76.476l8.965-11.081
			c0,0-40.497-1.688-35.012,16.997c5.484,18.685,54.982,68.209,54.982,68.209S446.374,1195.812,425.936,1202.94z"/>
		<path fill="none" stroke="#000000" stroke-width="6" stroke-linecap="round" stroke-miterlimit="10" d="M488.195,1033.88
			c0,0-27.578-1.226-31.362-13.268l16.644-6.58"/>
		
			<path fill="#E4DDC9" stroke="#000000" stroke-width="6.3457" stroke-linecap="round" stroke-linejoin="round" stroke-miterlimit="10" d="
			M486.138,1021.55c0,0-11.246-2.237-15.279,9.365"/>
		<path d="M468.186,1179.827c2.599,2.938-16.041-51.218-16.041-51.218S448.674,1157.759,468.186,1179.827z"/>
		<path fill="none" stroke="#000000" stroke-width="6" stroke-linecap="round" stroke-miterlimit="10" d="M509.303,1146.086
			c0,0-8.474-25.359-8.23-35.083"/>
	</g>
	<g id="body_2_">
		<path fill="#DDDDDD" stroke="#000000" stroke-width="6" stroke-miterlimit="10" d="M648.97,949.246
			c0,0-22.757-24.767-39.675-23.263c-16.919,1.504-38.998,32.791-38.998,32.791l-17.354-4.301
			c-42.063,98.96-36.36,156.208-36.36,156.208s5.229,2.055,4.992,4.543L648.97,949.246z"/>
		<path fill="#30497D" stroke="#000000" stroke-width="6" stroke-linejoin="round" stroke-miterlimit="10" d="M505.383,1118.734
			l114-201.737c0,0,101,25,93,119c0,0,154,85.486,170,116.243s7,61.757,7,61.757l-258.394-45
			C630.989,1168.997,532.383,1169.472,505.383,1118.734z"/>
	</g>
	<g id="arms_1_">
		
			<path fill="#30497D" stroke="#000000" stroke-width="5.5786" stroke-linecap="round" stroke-linejoin="round" stroke-miterlimit="10" d="
			M623.646,996.643c0,0-64.907-5.438-104.299,47.016l16.727,34.609l-17.319,85.051l-30.145,14.277c0,0-24.993,98.002-20.834,145.669
			l-12.301,10.8l90.432,29.554l68.954-172.943c0,0,17.876-3.541,17.406-5.29c-0.468-1.751-10.745-29.643-10.745-29.643
			s27.643-60.869,25.724-112.265"/>
		
			<path fill="#E4DDC9" stroke="#000000" stroke-width="6" stroke-linecap="round" stroke-linejoin="round" stroke-miterlimit="10" d="
			M451.905,1296.332c2.328-0.875,104.146,22.668,112.812,63.334l2.666,24.579h-166
			C401.383,1384.245,411.094,1311.665,451.905,1296.332z"/>
		
			<path fill="#E4DDC9" stroke="#000000" stroke-width="6" stroke-linecap="round" stroke-linejoin="round" stroke-miterlimit="10" d="
			M443.383,1308.734c0,0-19.999-18.402-32.666-5.068s-34.667,96.667-34.667,96.667h48.378L443.383,1308.734z"/>
		
			<path fill="#E4DDC9" stroke="#000000" stroke-width="6" stroke-linecap="round" stroke-linejoin="round" stroke-miterlimit="10" d="
			M523.383,1350.333c0,0,18.666-15.334,24-4.667s14,54.667,14,54.667h-32L523.383,1350.333z"/>
		
			<path fill="#E4DDC9" stroke="#000000" stroke-width="6" stroke-linecap="round" stroke-linejoin="round" stroke-miterlimit="10" d="
			M488.971,1327c0,0,30.056-11.283,34.412,4.454s13.334,68.879,13.334,68.879h-50.579L488.971,1327z"/>
		
			<path fill="#E4DDC9" stroke="#000000" stroke-width="6" stroke-linecap="round" stroke-linejoin="round" stroke-miterlimit="10" d="
			M484.383,1317c0,0-27.666-16.667-38.333-2.667s-21.622,86-21.622,86h63.421L484.383,1317z"/>
	</g>
</g>
<g id="Labels">
</g>
</svg>
