<?xml version="1.0" encoding="utf-8"?>
<!-- Generator: Adobe Illustrator 16.0.0, SVG Export Plug-In . SVG Version: 6.00 Build 0)  -->
<!DOCTYPE svg PUBLIC "-//W3C//DTD SVG 1.1//EN" "http://www.w3.org/Graphics/SVG/1.1/DTD/svg11.dtd">
<svg version="1.1" xmlns="http://www.w3.org/2000/svg" xmlns:xlink="http://www.w3.org/1999/xlink" x="0px" y="0px"
	 width="1508.923px" height="1422.555px" viewBox="0 0 1508.923 1422.555" enable-background="new 0 0 1508.923 1422.555"
	 xml:space="preserve">
<g id="Idle">
	<g id="legs">
	</g>
	<g id="head">
	</g>
	<g id="body">
	</g>
	<g id="arms">
	</g>
	<g id="weapon">
	</g>
	<g id="Layer_12">
	</g>
</g>
<g id="Attack">
	<g id="legs_copy">
	</g>
	<g id="head_copy">
	</g>
	<g id="body_copy">
	</g>
	<g id="arms_copy">
	</g>
	<g id="weapon_copy">
	</g>
	<g id="Layer_19">
	</g>
</g>
<g id="Hurt">
	<g id="legs_copy_2">
	</g>
	<g id="head_copy_2">
	</g>
	<g id="body_copy_2">
	</g>
	<g id="arms_copy_2">
	</g>
	<g id="weapon_copy_2">
	</g>
</g>
<g id="Death_1">
	<g id="legs_1_">
		<path stroke="#000000" stroke-width="5.1462" stroke-linecap="round" stroke-linejoin="round" stroke-miterlimit="10" d="
			M980.092,1375.402c3.602,2.509,119.588,5.289,119.588,5.289l14.408-29.317l-179.367-69.157
			C934.721,1282.217,965.033,1364.913,980.092,1375.402z"/>
		
			<path fill="#242F44" stroke="#000000" stroke-width="5.1462" stroke-linecap="round" stroke-linejoin="round" stroke-miterlimit="10" d="
			M803.77,1118.734l11.795,140.263c0,0,51.436-10,99.436,34s-142,44.654-142,44.654l-29.17-95.514L803.77,1118.734z"/>
		
			<path fill="#242F44" stroke="#000000" stroke-width="5.1462" stroke-linecap="round" stroke-linejoin="round" stroke-miterlimit="10" d="
			M680.709,1171.649c0,0-32.797,189.457,8.203,205.729s311-1.48,311-1.48l-48-83.544c0,0-67.072-53.296-162.035,0
			c0,0,31.75-131.534,13.893-173.619s-131.004,0-131.004,0L680.709,1171.649z"/>
	</g>
	<g id="head_x5C_">
		<path fill="#181304" stroke="#000000" stroke-width="6" stroke-miterlimit="10" d="M590.15,615.952c0,0-26.01,1.955-24.01-31.545
			s17-48.5,33.5-64l7.5,7.5c0,0,19-21.5,53.5-30l-4,20c0,0,24.5-12.5,61.5-12.5v11c0,0,40.5-10,77.5-0.5l-3.793,19.5
			c0,0,9.793,14.5,17.293,40.5s17.5,128.5-29,164s-92.5,6.5-92.5,6.5L590.15,615.952"/>
		
			<path fill="#E4DDC9" stroke="#000000" stroke-width="6.3457" stroke-linecap="round" stroke-linejoin="round" stroke-miterlimit="10" d="
			M764.975,742.406l21.666,55.667c0,0,10,54.332-26.666,57c-36.668,2.666-72,7-72,7s-19.666-54.334-21-57.334
			s51.334-70.166,64-73.083s33,9.083,33,9.083"/>
		
			<path fill="#E4DDC9" stroke="#000000" stroke-width="6.3457" stroke-linecap="round" stroke-linejoin="round" stroke-miterlimit="10" d="
			M578.156,613.75c0,0-18.805,87.081,22.287,216.989l148.352-47.109l-6.27-38.544c0,0,24.377,14.276,34.824,9.28
			c10.447-4.998,22.289-41.4,7.662-79.944l-64.773,34.261c0,0-16.715-39.258,2.09-94.932c0,0-4.18-29.265-36.217-24.982
			C654.072,593.051,604.623,624.457,578.156,613.75z"/>
		<path d="M588.641,642.406c0,0-4.666,46,10.334,46.333c15,0.334,83.879-38,83.879-38l9.453,10.667c0,0,8.334-39.666-11-37.333
			c-19.332,2.333-76.332,43-76.332,43S592.307,663.739,588.641,642.406z"/>
		<path fill="none" stroke="#000000" stroke-width="6" stroke-linecap="round" stroke-miterlimit="10" d="M745.141,731.656
			c0,0,5.75-27,18.25-28.75l3.75,17.5"/>
		
			<path fill="#E4DDC9" stroke="#000000" stroke-width="6.3457" stroke-linecap="round" stroke-linejoin="round" stroke-miterlimit="10" d="
			M757.641,731.656c0,0,4.059-10.724-6.721-16.612"/>
		<path d="M604.48,687.886c-3.326,2.079,53.16-7.389,53.16-7.389S629.461,672.274,604.48,687.886z"/>
		<path fill="none" stroke="#000000" stroke-width="6" stroke-linecap="round" stroke-miterlimit="10" d="M630.99,733.997
			c0,0,26.408-4.182,35.959-2.341"/>
	</g>
	<g id="body_1_">
		<path fill="#DDDDDD" stroke="#000000" stroke-width="6" stroke-miterlimit="10" d="M858.652,855.082c0,0,3-33.5-9.5-45
			s-50.5-6.771-50.5-6.771l-8.5-15.729c-101.5,35.5-140,78.25-140,78.25s2,5.25,0,6.75L858.652,855.082z"/>
		<path fill="#30497D" stroke="#000000" stroke-width="6" stroke-linejoin="round" stroke-miterlimit="10" d="M636.852,862.906
			c0,0,145-54.666,219.5-47.166c0,0,11.5,40.5-4,81.5s-49.576,59.5-49.576,59.5l0.777,7.426l16.299,155.574l7,15l-153,17.5v-16
			c0,0-35.5-13-30-56.5s15.5-66.5,15.5-66.5S637.852,950.073,636.852,862.906z"/>
		
			<line fill="#E4DDC9" stroke="#000000" stroke-width="6" stroke-linecap="round" stroke-linejoin="round" stroke-miterlimit="10" x1="795.82" y1="879.416" x2="804.107" y2="972.42"/>
		<path fill="none" stroke="#000000" stroke-width="6" stroke-linecap="round" stroke-linejoin="round" stroke-miterlimit="10" d="
			M781.402,1127.082c0-4.25-1.004-19.002-1.004-19.002s-39.916-37.334-46.582-84l-69.164-4.998"/>
	</g>
	<g id="arms_2_">
		
			<path fill="#E4DDC9" stroke="#000000" stroke-width="6" stroke-linecap="round" stroke-linejoin="round" stroke-miterlimit="10" d="
			M744.953,1324.512c0,0,20.541,1.748,32.547-4.606c12.004-6.354,27.65-9.136,27.65-9.136l0.258-90.284l-76.242,3.492
			l-15.758,10.722c0,0-20.326,1.129-31.154,14.544l14.225,83.131c3.92,4.925,27.842,7.147,34.553,3.385
			C742.621,1329.262,744.953,1324.512,744.953,1324.512z"/>
		
			<path fill="#E4DDC9" stroke="#000000" stroke-width="6" stroke-linecap="round" stroke-linejoin="round" stroke-miterlimit="10" d="
			M793.09,1302.78c0,0-11.43-6.132-18.143,2.668c-6.711,8.8-11.277,14.534-29.723,19.42"/>
		
			<path fill="#30497D" stroke="#000000" stroke-width="6" stroke-linecap="round" stroke-linejoin="round" stroke-miterlimit="10" d="
			M751.6,829.739c0,0-66.805,16.017-86.42,83.385l29.68,30.208l14.645,93.714l-24.719,24.812c0,0,11.848,109.663,33.889,157.562
			l-8.219,15.269l101.324,0.408l3.885-201.807c0,0,16.508-9.62,15.383-11.272c-1.125-1.654-21.848-27.066-21.848-27.066
			s4.732-72.152-16.473-124.653"/>
	</g>
</g>
<g id="Death_2">
	<g id="legs_2_">
	</g>
	<g id="head_1_">
	</g>
	<g id="body_2_">
	</g>
	<g id="arms_1_">
	</g>
</g>
<g id="Labels">
</g>
</svg>
