<?xml version="1.0" encoding="utf-8"?>
<!-- Generator: Adobe Illustrator 16.0.0, SVG Export Plug-In . SVG Version: 6.00 Build 0)  -->
<!DOCTYPE svg PUBLIC "-//W3C//DTD SVG 1.1//EN" "http://www.w3.org/Graphics/SVG/1.1/DTD/svg11.dtd">
<svg version="1.1" xmlns="http://www.w3.org/2000/svg" xmlns:xlink="http://www.w3.org/1999/xlink" x="0px" y="0px"
	 width="1508.923px" height="1422.555px" viewBox="0 0 1508.923 1422.555" enable-background="new 0 0 1508.923 1422.555"
	 xml:space="preserve">
<g id="Idle">
	<g id="legs">
		<path stroke="#000000" stroke-width="5.1462" stroke-linecap="round" stroke-linejoin="round" stroke-miterlimit="10" d="
			M730.891,1309.912c-4.339-0.663-109.661,48-109.661,48v32.667h186.656C807.886,1390.579,749.031,1312.684,730.891,1309.912z"/>
		<path stroke="#000000" stroke-width="5.1462" stroke-linecap="round" stroke-linejoin="round" stroke-miterlimit="10" d="
			M924.553,1303.578c-4.339-0.663-109.66,48-109.66,48v32.667h186.655C1001.548,1384.245,942.693,1306.35,924.553,1303.578z"/>
		
			<path fill="#242F44" stroke="#000000" stroke-width="5.1462" stroke-linecap="round" stroke-linejoin="round" stroke-miterlimit="10" d="
			M844.553,933.911l37.333,224l37.001,6.667c0,0,24.333,91.333,19.333,104.333c-6.518,16.945-26.405,22.605-28.417,31.66
			c0,0,53.084,76.007,51.417,82.34s160.333,0,160.333,0s-14.999-45.667-26.666-66s-84-204.666-87.667-221c0,0-25.334-6-24.167-10
			s11.834,0.666,11.834,0.666s-6.668-9-11.834-30.333s-13.166-138-13.166-138L844.553,933.911z"/>
		
			<path fill="#E4DDC9" stroke="#000000" stroke-width="5.1462" stroke-linecap="round" stroke-linejoin="round" stroke-miterlimit="10" d="
			M907.883,1162.596c0,0,31.337,5.982,33.337,5.982"/>
		
			<path fill="#242F44" stroke="#000000" stroke-width="5.1462" stroke-linecap="round" stroke-linejoin="round" stroke-miterlimit="10" d="
			M960.507,918.244l22.546,43.001c0,0-106.161,128.999-151.997,159.166h-15.003l15.003,9.5c0,0,26.833,130.002,50.166,179.335
			s31.333,81.333,31.333,81.333h-126c0,0-64.666-60.001-80.667-68.667c0,0-4.439-16,3.447-19.333s13.556-10,13.556-10
			s8.971-123.984,11.317-126.992s-15.653-59.008-19.653-63.008c0,0,89.334-137.333,120.667-161.333S960.507,918.244,960.507,918.244
			z"/>
	</g>
	<g id="head">
		<path fill="#181304" stroke="#000000" stroke-width="6" stroke-miterlimit="10" d="M734.063,410.457
			c0,0-26.011,1.955-24.011-31.545s17-48.5,33.5-64l7.5,7.5c0,0,19-21.5,53.5-30l-4,20c0,0,24.5-12.5,61.5-12.5v11
			c0,0,40.5-10,77.5-0.5l-3.793,19.5c0,0,9.793,14.5,17.293,40.5s17.5,128.5-29,164s-92.5,6.5-92.5,6.5L734.063,410.457"/>
		
			<path fill="#E4DDC9" stroke="#000000" stroke-width="6.3457" stroke-linecap="round" stroke-linejoin="round" stroke-miterlimit="10" d="
			M908.887,536.911l21.666,55.667c0,0,10.001,54.333-26.666,57s-72,7-72,7s-19.666-54.333-21-57.333s51.334-70.167,64-73.083
			s33,9.083,33,9.083"/>
		
			<path fill="#E4DDC9" stroke="#000000" stroke-width="6.3457" stroke-linecap="round" stroke-linejoin="round" stroke-miterlimit="10" d="
			M722.068,408.255c0,0-18.805,87.081,22.287,216.989l148.352-47.109l-6.269-38.544c0,0,24.376,14.276,34.823,9.28
			c10.447-4.997,22.289-41.4,7.662-79.944l-64.772,34.261c0,0-16.716-39.258,2.089-94.933c0,0-4.179-29.265-36.217-24.982
			C797.984,387.556,748.535,418.962,722.068,408.255z"/>
		<ellipse fill="#FFFFFF" cx="762.803" cy="477.411" rx="7.75" ry="7"/>
		<path d="M751.553,475.245c0,0-1,18.667,14.667,18.667s11.333-30,11.333-30l-10.333,5.333c0,0,0.667,13.333-4,13.333
			s-5-10.667-5-10.667L751.553,475.245z"/>
		<path d="M732.553,436.911c0,0-4.666,46,10.334,46.333s83.88-38,83.88-38l9.453,10.667c0,0,8.333-39.666-11-37.333
			s-76.333,43-76.333,43S736.219,458.244,732.553,436.911z"/>
		<path fill="none" stroke="#000000" stroke-width="6" stroke-linecap="round" stroke-miterlimit="10" d="M743.303,539.411
			c-0.25-0.75-4.25-27.25-4.25-27.25s40.25-6.75,62.5,10.25"/>
		<path fill="none" stroke="#000000" stroke-width="6" stroke-linecap="round" stroke-miterlimit="10" d="M889.053,526.161
			c0,0,5.75-27,18.25-28.75l3.75,17.5"/>
		
			<path fill="#E4DDC9" stroke="#000000" stroke-width="6.3457" stroke-linecap="round" stroke-linejoin="round" stroke-miterlimit="10" d="
			M901.553,526.161c0,0,4.059-10.724-6.721-16.612"/>
		<path fill="#DDDDDD" stroke="#000000" stroke-width="6" stroke-miterlimit="10" d="M1010.053,642.911c0,0,3-33.5-9.5-45
			s-50.5-6.771-50.5-6.771l-8.5-15.729c-101.5,35.5-140,78.25-140,78.25s2,5.25,0,6.75L1010.053,642.911z"/>
	</g>
	<g id="body">
		<path fill="#30497D" stroke="#000000" stroke-width="6" stroke-linejoin="round" stroke-miterlimit="10" d="M788.251,650.736
			c0,0,145-54.667,219.5-47.167c0,0,11.5,40.5-4,81.5s-49.576,59.5-49.576,59.5l0.777,7.426l16.299,155.574l7,15l-153,17.5v-16
			c0,0-35.5-13-30-56.5s15.5-66.5,15.5-66.5S789.251,737.902,788.251,650.736z"/>
		
			<line fill="#E4DDC9" stroke="#000000" stroke-width="6" stroke-linecap="round" stroke-linejoin="round" stroke-miterlimit="10" x1="947.22" y1="667.245" x2="955.507" y2="760.249"/>
		<path fill="none" stroke="#000000" stroke-width="6" stroke-linecap="round" stroke-linejoin="round" stroke-miterlimit="10" d="
			M932.803,914.911c0-4.25-1.004-19.002-1.004-19.002s-39.916-37.334-46.582-84l-69.164-4.998"/>
	</g>
	<g id="arms">
		
			<path fill="#E4DDC9" stroke="#000000" stroke-width="6" stroke-linecap="round" stroke-linejoin="round" stroke-miterlimit="10" d="
			M661.553,1023.911c0,0,16,13,29.5,14.5s28,8,28,8l51-74.5l-65-40h-19.06c0,0-17.44-10.5-33.94-5.5l-52,114c0,0,18,14,30.5,9.5
			S661.553,1023.911,661.553,1023.911z"/>
		
			<path fill="#E4DDC9" stroke="#000000" stroke-width="6" stroke-linecap="round" stroke-linejoin="round" stroke-miterlimit="10" d="
			M715.053,1030.411c0,0-6-11.5-16.5-8s-17.5,5.674-35.5-0.663"/>
		
			<path fill="#E4DDC9" stroke="#000000" stroke-width="5.1462" stroke-linecap="round" stroke-linejoin="round" stroke-miterlimit="10" d="
			M689.092,1045.47c0,0-2.573-10.292,11.149-20.155l34.546,18.411c0,0,1.743,5.33-9.838,12.574
			C714.012,1063.142,689.092,1045.47,689.092,1045.47z"/>
		
			<path fill="#E4DDC9" stroke="#000000" stroke-width="5.1462" stroke-linecap="round" stroke-linejoin="round" stroke-miterlimit="10" d="
			M748.081,1021.166c0,0-2.905,9.245-13.294,22.56l-36.452-18.411c0,0,4.288-13.798,16.296-21.731L748.081,1021.166z"/>
		
			<path fill="#E4DDC9" stroke="#000000" stroke-width="5.1462" stroke-linecap="round" stroke-linejoin="round" stroke-miterlimit="10" d="
			M761.805,1001.959c0,0-3.869,9.692-13.724,19.207l-31.385-16.726c0,0,6.842-17.583,13.731-20.521L761.805,1001.959z"/>
		
			<path fill="#E4DDC9" stroke="#000000" stroke-width="5.1462" stroke-linecap="round" stroke-linejoin="round" stroke-miterlimit="10" d="
			M761.805,1001.959c0,0,8.248-6.048,8.248-12.298c0-7.979-23.75-18.75-23.75-18.75l-10.616,16.032L761.805,1001.959z"/>
		
			<path fill="#30497D" stroke="#000000" stroke-width="6" stroke-linecap="round" stroke-linejoin="round" stroke-miterlimit="10" d="
			M945.363,618.578c0,0-64.243-24.337-118.357,20.329l7.547,41.671l-40.606,85.72l-34.394,6.609c0,0-51.892,97.333-60.61,149.333
			l-15.385,8l83.545,57.334l116.729-164.667c0,0,19.06,1.333,19.06-0.667s-2.839-34.667-2.839-34.667s44.5-56.992,56.5-112.329"/>
	</g>
	<g id="weapon">
		
			<path fill="#8B8B8B" stroke="#000000" stroke-width="5.1462" stroke-linecap="round" stroke-linejoin="round" stroke-miterlimit="10" d="
			M538.553,1096.735l-126.5,252.676c0,0,71-37.5,99.5-75.5s74.14-179.525,74.14-179.525L538.553,1096.735z"/>
		
			<path fill="#A5A5A5" stroke="#000000" stroke-width="5.1462" stroke-linecap="round" stroke-linejoin="round" stroke-miterlimit="10" d="
			M616.553,1091.411l-86.5,171.5c0,0-34,59-118,86.5c0,0,71.5-46.5,99-93s63-147.218,63-147.218L616.553,1091.411z"/>
		
			<path fill="#606060" stroke="#000000" stroke-width="5.1462" stroke-linecap="round" stroke-linejoin="round" stroke-miterlimit="10" d="
			M560.078,1116.911l9.975,6.5c0,0,27-31.5,46.5-32l-35.75-21.353L560.078,1116.911z"/>
		
			<path fill="#606060" stroke="#000000" stroke-width="5.1462" stroke-linecap="round" stroke-linejoin="round" stroke-miterlimit="10" d="
			M585.693,1059.644c0,0,18.193,16.601,35.86,10.935s41.825-45.264,41.825-45.264s-28.159,29.931-43.825,29.931
			s-25.385-13.65-25.385-13.65L585.693,1059.644z"/>
		
			<path fill="#8B8B8B" stroke="#000000" stroke-width="5.1462" stroke-linecap="round" stroke-linejoin="round" stroke-miterlimit="10" d="
			M475.969,1093.63c0,0,6.032-14.053,7.584-14.053c2,0,30.667,18,30.667,18l-4.471,11.616L475.969,1093.63z"/>
		
			<path fill="#606060" stroke="#000000" stroke-width="5.1462" stroke-linecap="round" stroke-linejoin="round" stroke-miterlimit="10" d="
			M566.885,898.246c0,0,58-6.369,85.403,27.75l-91.333,194.518l-86.736-40.269L566.885,898.246z"/>
		
			<path fill="none" stroke="#000000" stroke-width="5.1462" stroke-linecap="round" stroke-linejoin="round" stroke-miterlimit="10" d="
			M518.324,1101.063c0,0-0.896-18.485,0-20.485s83.563-167,83.563-167s2.916-14.284-8.229-15.023"/>
		
			<polyline fill="#8B8B8B" stroke="#000000" stroke-width="5.1462" stroke-linecap="round" stroke-linejoin="round" stroke-miterlimit="10" points="
			503.032,1023.654 539.011,1039.141 564.645,987.932 528.536,973.563 504.002,1021.748 		"/>
	</g>
	<g id="Layer_12">
	</g>
</g>
<g id="Attack">
	<g id="legs_copy">
	</g>
	<g id="head_copy">
	</g>
	<g id="body_copy">
	</g>
	<g id="arms_copy">
	</g>
	<g id="weapon_copy">
	</g>
	<g id="Layer_19">
	</g>
</g>
<g id="Hurt">
	<g id="legs_copy_2">
	</g>
	<g id="head_copy_2">
	</g>
	<g id="body_copy_2">
	</g>
	<g id="arms_copy_2">
	</g>
	<g id="weapon_copy_2">
	</g>
</g>
<g id="Death_1">
	<g id="legs_1_">
	</g>
	<g id="head_x5C_">
	</g>
	<g id="body_1_">
	</g>
	<g id="arms_2_">
	</g>
</g>
<g id="Death_2">
	<g id="legs_2_">
	</g>
	<g id="head_1_">
	</g>
	<g id="body_2_">
	</g>
	<g id="arms_1_">
	</g>
</g>
<g id="Labels">
</g>
</svg>
