<?xml version="1.0" encoding="utf-8"?>
<!-- Generator: Adobe Illustrator 16.0.0, SVG Export Plug-In . SVG Version: 6.00 Build 0)  -->
<!DOCTYPE svg PUBLIC "-//W3C//DTD SVG 1.1//EN" "http://www.w3.org/Graphics/SVG/1.1/DTD/svg11.dtd">
<svg version="1.1" xmlns="http://www.w3.org/2000/svg" xmlns:xlink="http://www.w3.org/1999/xlink" x="0px" y="0px"
	 width="1508.923px" height="1422.555px" viewBox="0 0 1508.923 1422.555" enable-background="new 0 0 1508.923 1422.555"
	 xml:space="preserve">
<g id="Idle">
</g>
<g id="Attack">
</g>
<g id="Hurt">
	<g id="Head_2_">
		
			<polygon fill="#E4DDC9" stroke="#000000" stroke-width="6" stroke-linecap="round" stroke-linejoin="round" stroke-miterlimit="10" points="
			855.333,489.331 853.498,588.497 774.525,627.497 782.498,568.497 810.998,504.346 		"/>
		
			<path fill="#2E2C26" stroke="#000000" stroke-width="6" stroke-linecap="round" stroke-linejoin="round" stroke-miterlimit="10" d="
			M639.274,398.341c0,0,31.988-42.928,89.229-52.596c57.241-9.668,77.825,8.255,96.402,49.352
			c18.576,41.096,29.079,77.739,29.079,77.739l21.873,18.511l-78.056,16.816c0,0-162.106-25.205-157.826-107.949"/>
		
			<path fill="#2E2C26" stroke="#000000" stroke-width="6" stroke-linecap="round" stroke-linejoin="round" stroke-miterlimit="10" d="
			M644.704,487.063c0,0-37.622-12.618-71.597-78.917l39.921,8.555c0,0-4.405-34.653,14.584-69.516c0,0,34.908,107.589,70.722,109.14
			C734.146,457.875,644.704,487.063,644.704,487.063z"/>
		<g>
			<path fill="#E4DDC9" d="M744.365,633.753c-0.315,0-0.633-0.05-0.941-0.151c-0.661-0.219-16.441-5.594-37.977-26.705
				c-19.641-19.254-48.083-55.963-72.044-121.503c-0.406-1.112-0.121-2.359,0.729-3.183c1.043-1.012,26.494-25.118,109.29-53.963
				c0.321-0.112,0.654-0.167,0.987-0.167c0.471,0,0.939,0.111,1.366,0.329c1.175,0.601,28.832,14.897,34.777,30.79
				c0.113,0.302,0.177,0.621,0.188,0.943l0.839,23.177l19.815,6.354c2.213-1.381,8.169-5.876,13.049-16.589
				c6.846-15.028,11.866-20.848,12.076-21.088c0.529-0.605,1.279-0.972,2.082-1.019c0.059-0.004,0.117-0.005,0.176-0.005
				c0.741,0,1.458,0.274,2.011,0.773c0.976,0.881,23.813,21.936,16.313,52.692c-0.224,0.916-0.865,1.674-1.731,2.046l-15.29,6.564
				l17.628,17.956c1.083,1.103,1.15,2.847,0.157,4.03c-0.342,0.407-34.908,41.318-101.558,98.004
				C745.759,633.506,745.067,633.753,744.365,633.753z"/>
			<path d="M744.409,431.081c0,0,27.728,14.184,33.334,29.17l0.915,25.282l23.052,7.393c0,0,8.723-3.797,15.465-18.597
				c6.741-14.8,11.604-20.356,11.604-20.356s22.572,20.383,15.409,49.755l-19.318,8.294l20.699,21.084
				c0,0-33.975,40.469-101.203,97.647c0,0-62.132-20.532-108.145-146.389C636.221,484.364,661.287,460.04,744.409,431.081
				 M744.409,425.081c-0.666,0-1.333,0.111-1.974,0.334c-83.416,29.061-109.331,53.612-110.394,54.643
				c-1.698,1.649-2.27,4.143-1.456,6.366c10.639,29.1,23.04,55.039,36.859,77.095c11.129,17.761,23.208,33.076,35.902,45.521
				c22.025,21.592,38.447,27.183,39.135,27.411c0.616,0.203,1.252,0.303,1.882,0.303c1.405,0,2.787-0.493,3.888-1.43
				c66.84-56.848,101.568-97.951,101.912-98.36c1.986-2.367,1.851-5.856-0.314-8.061l-14.556-14.827l11.261-4.835
				c1.732-0.744,3.016-2.259,3.462-4.092c7.92-32.475-16.187-54.699-17.217-55.629c-1.105-0.999-2.54-1.547-4.021-1.547
				c-0.117,0-0.234,0.003-0.352,0.01c-1.604,0.094-3.104,0.829-4.163,2.038c-0.558,0.637-5.643,6.656-12.549,21.82
				c-3.9,8.563-8.424,12.779-10.781,14.534l-16.432-5.269l-0.763-21.072c-0.023-0.645-0.15-1.281-0.376-1.886
				c-6.242-16.684-33.172-30.849-36.222-32.409C746.287,425.302,745.35,425.081,744.409,425.081L744.409,425.081z"/>
		</g>
		<path fill="none" stroke="#000000" stroke-width="6" stroke-linecap="round" stroke-miterlimit="10" d="M738.75,572.997
			c0,0,9.388-9.933,51.09-22.423"/>
		<path fill="none" stroke="#000000" stroke-width="6" stroke-linecap="round" stroke-linejoin="round" stroke-miterlimit="10" d="
			M830.845,467.346c0,0-7.089,9.591-0.607,26.919c0,0-2.515-9.203,6.038-12.402"/>
		<path d="M672.6,527.949c0,0,9.986,26.693,18.826,21.785c8.841-4.908,42.947-63.577,52.78-65.12
			c9.832-1.543,15.392-0.954,15.392-0.954l-2.803-7.493c0,0-8.065-12.998-27.151-2.655c0,0-32.365,60.152-40.613,63.238
			C680.783,539.835,672.6,527.949,672.6,527.949z"/>
		<path d="M695,539.497c0,0,28.25-27.25,48-33.5l-50,37.5L695,539.497z"/>
	</g>
	<g id="Right_Arm_3_">
		<g>
			<path fill="#E4DDC9" d="M637.894,745.53c-0.639,0-1.263-0.205-1.78-0.586c-1.417-1.045-34.901-25.851-52.429-48.88
				c-3.434-4.513-4.617-9.691-3.517-15.393c4.269-22.11,42.826-45.388,44.466-46.368c0.468-0.28,1-0.425,1.539-0.425
				c0.189,0,0.379,0.018,0.566,0.054c1.408,0.271,34.61,6.914,46.519,31.389c4.9,10.07,5.426,21.585,1.592,34.369l2.169-2.237
				c0.352-0.362,0.788-0.63,1.271-0.778l105-32.371c0.29-0.09,0.588-0.133,0.884-0.133c0.694,0,1.378,0.242,1.926,0.7
				c0.779,0.653,1.176,1.656,1.052,2.666l-7.975,65c-0.174,1.42-1.327,2.52-2.754,2.627l-138.305,10.359
				C638.043,745.526,637.968,745.53,637.894,745.53z"/>
			<path d="M626.173,636.878c0,0,72,13.853,40,76.072l13-13.41l105-32.371l-7.975,65l-138.305,10.36
				c0,0-34.354-25.332-51.821-48.283S626.173,636.878,626.173,636.878 M784.173,667.17h0.005 M626.173,630.878
				c-1.077,0-2.142,0.29-3.079,0.85c-0.414,0.248-10.259,6.161-20.744,14.809c-14.717,12.138-23.171,23.431-25.127,33.565
				c-1.252,6.483,0.157,12.631,4.075,17.778c17.784,23.367,51.604,48.422,53.035,49.478c1.034,0.764,2.283,1.172,3.561,1.172
				c0.149,0,0.299-0.006,0.448-0.018l138.305-10.359c2.854-0.215,5.158-2.413,5.507-5.254l7.95-64.802
				c0.047-0.303,0.072-0.612,0.072-0.928c0-3.285-2.639-5.954-5.913-6c-0.03,0-0.061,0-0.091,0c-0.088,0-0.178,0.002-0.267,0.006
				c-0.568,0.025-1.116,0.129-1.634,0.302l-102.766,31.682c1.902-10.62,0.722-20.372-3.55-29.151
				c-12.559-25.81-47.182-32.74-48.649-33.022C626.931,630.914,626.551,630.878,626.173,630.878L626.173,630.878z"/>
		</g>
		<g>
			<path fill="#E4DDC9" d="M639.086,666.646c-4.314,0-7.74-1.73-9.906-5.002c-8.842-13.361,6.594-50.703,8.383-54.917
				c0.405-0.954,1.273-1.631,2.296-1.792c0.156-0.024,0.312-0.036,0.466-0.036c0.863,0,1.694,0.373,2.27,1.038
				c0.592,0.685,14.536,16.862,18.053,25.568c2.183,5.399,6.244,15.45,1.554,23.782c-3.222,5.725-9.949,9.456-19.994,11.091
				C641.119,666.557,640.069,666.646,639.086,666.646z"/>
			<path d="M640.324,607.9c0,0,14.17,16.385,17.541,24.729c3.372,8.344,10.677,26.424-16.142,30.789
				c-0.941,0.153-1.822,0.228-2.638,0.228C616.655,663.646,640.324,607.9,640.324,607.9 M640.324,601.9
				c-0.309,0-0.62,0.024-0.931,0.073c-2.047,0.321-3.782,1.675-4.592,3.583c-0.179,0.42-4.403,10.417-7.658,22.132
				c-4.78,17.212-4.933,28.861-0.466,35.612c1.916,2.896,5.625,6.347,12.408,6.347c1.145,0,2.356-0.103,3.602-0.306
				c10.99-1.789,18.436-6.021,22.127-12.581c5.398-9.59,0.984-20.511-1.387-26.378c-3.639-9.008-17.048-24.652-18.565-26.406
				C643.713,602.646,642.051,601.9,640.324,601.9L640.324,601.9z"/>
		</g>
		
			<path fill="#E4DDC9" stroke="#000000" stroke-width="6" stroke-linecap="round" stroke-linejoin="round" stroke-miterlimit="10" d="
			M601.69,692.985c34.717-8.904,50.903-22.904,50.903-22.904c-11.139-16.891-7.755-40.547-7.029-45.873
			c0.724-5.326-0.563-10.292-0.563-10.292l-51.945,17.362c2.175-3.519,54.444-20.076,54.444-20.076
			c3.815-6.574-9.982-24.705-9.982-24.705s-48.495,11.662-66.92,17.668s-16.247,40.537-14.654,49.152
			c1.543,8.344,13.521,23.719,13.521,23.719l16.64,21.768"/>
		
			<path fill="#E4DDC9" stroke="#000000" stroke-width="6" stroke-linecap="round" stroke-linejoin="round" stroke-miterlimit="10" d="
			M570.598,604.165c0,0-9.366,12.412,0.692,21.291c10.059,8.878,27.622,48.789,27.622,48.789"/>
	</g>
	<g id="Body_2_">
		
			<path fill="#EAEAEA" stroke="#000000" stroke-width="6" stroke-linecap="round" stroke-linejoin="round" stroke-miterlimit="10" d="
			M751.332,946.663c0,0-26-3.334-40-8.668c0,0,1.332-24.666,13.332-38.666C724.664,899.329,747.332,927.995,751.332,946.663z"/>
		
			<path fill="#EAEAEA" stroke="#000000" stroke-width="6" stroke-linecap="round" stroke-linejoin="round" stroke-miterlimit="10" d="
			M811.498,633.497l51-51c0,0,20,37,21,93c1,56,10,142.998,9,153.998s-24,108-9,139c0,0-84-2-140-18c0,0-19-52-30-52l15-7
			c0,0,33-85,38-106.998c5-22,4.5-78,4.5-78S748.498,638.497,811.498,633.497z"/>
		<g>
			<path fill="#EAEAEA" d="M783.498,673.497c-0.769,0-1.536-0.294-2.121-0.879l-36-36c-0.679-0.678-0.991-1.64-0.843-2.587
				c0.149-0.947,0.742-1.767,1.596-2.204l120-61.5c0.438-0.224,0.905-0.331,1.366-0.331c1.053,0,2.071,0.556,2.619,1.535l7,12.5
				c0.675,1.205,0.44,2.715-0.569,3.658l-91,85C784.969,673.229,784.233,673.497,783.498,673.497z"/>
			<path d="M867.498,572.997l7,12.5l-91,85l-36-36L867.498,572.997 M867.494,566.996c-0.923,0-1.857,0.213-2.732,0.661l-120,61.5
				c-1.707,0.875-2.893,2.513-3.191,4.408c-0.297,1.895,0.329,3.818,1.686,5.174l36,36c1.169,1.169,2.705,1.757,4.242,1.757
				c1.47,0,2.94-0.537,4.096-1.615l91-85c2.019-1.886,2.489-4.906,1.14-7.316l-7-12.5
				C871.637,568.107,869.599,566.996,867.494,566.996L867.494,566.996z"/>
		</g>
	</g>
	<g id="Pants_2_">
		
			<path fill="#2E2C26" stroke="#000000" stroke-width="6" stroke-linecap="round" stroke-linejoin="round" stroke-miterlimit="10" d="
			M589.984,1146.583c0,0-38.741,44.813-61.677,100.588l21.718,28.922L746,1174.997L589.984,1146.583z"/>
		
			<path fill="#2E2C26" stroke="#000000" stroke-width="6" stroke-linecap="round" stroke-linejoin="round" stroke-miterlimit="10" d="
			M873.498,1285.995c0,0-55,22-101,61l6,35.666h168L873.498,1285.995z"/>
		<g>
			<path fill="#19325A" d="M896.664,1383.661c-1.317,0-2.479-0.859-2.867-2.117c-0.132-0.426-13.286-42.826-26.635-56.811
				c-12.965-13.582-43.586-14.398-43.894-14.404c-1.287-0.027-2.414-0.873-2.799-2.102s0.057-2.566,1.098-3.324l5.607-4.08
				c-0.736-3.016-1.411-8.506,1.474-13.557c1.912-3.348,4.998-5.883,9.214-7.578l-1.952-1.051c-0.386-0.207-0.721-0.496-0.982-0.848
				l-35.334-47.334c-0.387-0.518-0.596-1.148-0.596-1.795c0-0.74-0.187-74.666-15.824-118.32
				c-15.742-43.947-48.82-105.641-49.152-106.258c-0.101-0.188-0.181-0.385-0.239-0.59c-0.379-1.311-8.811-32.41,31.211-59.318
				c11.113-7.473,24.855-11.262,40.846-11.262c30.732,0,59.047,13.805,60.237,14.393c1.029,0.508,1.678,1.559,1.672,2.705
				c-0.003,0.482-0.332,48.719-7.293,89.49c-6.956,40.742-1.473,126.609,6.837,139.904c0.262,0.418,0.416,0.895,0.449,1.387
				c0.015,0.213,0.065,1.334-0.317,2.785c0.671-0.914,1.326-1.934,1.964-3.061c0.397-0.701,1.061-1.213,1.84-1.42
				c0.254-0.068,0.513-0.102,0.771-0.102c0.534,0,1.064,0.143,1.531,0.422c0.419,0.248,10.267,6.203,11.455,16.4
				c0.108,0.932,0.142,1.861,0.102,2.793c0.263-1.066,1.091-1.91,2.167-2.188c0.247-0.063,0.497-0.094,0.745-0.094
				c0.919,0,1.804,0.424,2.38,1.174c1.805,2.352,44.315,57.844,55.652,81.182c10.482,21.584,20.7,75.902,22.616,86.428
				l34.394,12.736c1.362,0.504,2.167,1.912,1.911,3.342c-0.257,1.43-1.5,2.471-2.953,2.471H896.664z"/>
			<path d="M805.839,935.913c30.386-0.002,58.909,14.082,58.909,14.082s-0.25,48-7.25,89s-1.5,128,7.25,142
				c0,0,0.496,7.303-9.596,7.303c-2.295,0-5.135-0.377-8.654-1.303c0,0,5.1,5.4,11.628,5.4c4.353,0,9.338-2.4,13.872-10.4
				c0,0,21.332,12.666,2,31.334c0,0,12.666-5.334,14-14c0,0,44,57.334,55.334,80.666c11.332,23.334,22.666,87.334,22.666,87.334
				l36,13.332H896.664c0,0-13.332-43.334-27.332-58s-46-15.332-46-15.332l7.332-5.334c0,0-7.334-18,15.334-21.334l-8.666-4.666
				l-35.334-47.334c0,0,0-74.666-16-119.332c-16-44.668-49.334-106.668-49.334-106.668s-8.663-30,30.003-55.998
				C778.541,938.681,792.374,935.913,805.839,935.913 M805.843,929.913v6V929.913c-16.603,0-30.907,3.961-42.523,11.771
				c-21.56,14.496-29.289,30.451-31.977,41.283c-2.97,11.967-0.71,20.432-0.443,21.357c0.118,0.408,0.278,0.803,0.479,1.178
				c0.332,0.615,33.309,62.127,48.971,105.85c15.47,43.186,15.648,116.572,15.648,117.309c0,1.295,0.418,2.553,1.191,3.59
				l35.067,46.977c-2.641,1.744-4.716,3.93-6.214,6.553c-2.828,4.951-2.791,10.131-2.2,13.758l-4.04,2.939
				c-2.083,1.516-2.967,4.191-2.195,6.648s3.024,4.148,5.6,4.203c8.217,0.184,31.751,2.963,41.785,13.475
				c10.683,11.191,22.345,43.945,25.938,55.623c0.774,2.518,3.101,4.234,5.734,4.234h105.334c2.905,0,5.394-2.082,5.906-4.941
				c0.512-2.859-1.098-5.676-3.822-6.686l-32.793-12.143c-2.545-13.75-12.39-64.576-22.56-85.518
				c-11.469-23.609-54.16-79.336-55.972-81.697c-1.152-1.502-2.923-2.348-4.76-2.348c-0.131,0-0.263,0.004-0.395,0.014
				c-2.261-10.133-11.438-15.85-12.542-16.506c-0.936-0.557-1.995-0.842-3.063-0.842c-0.516,0-1.033,0.066-1.541,0.201
				c-0.425,0.113-0.833,0.271-1.218,0.471c-2.781-6.219-6.302-25.797-8.032-56.881c-1.731-31.102-0.887-61.672,2.205-79.781
				c7.003-41.014,7.325-87.998,7.336-89.979c0.012-2.295-1.286-4.395-3.344-5.41C866.188,944.015,837.266,929.913,805.843,929.913
				L805.843,929.913z"/>
		</g>
		
			<path fill="#19325A" stroke="#000000" stroke-width="6" stroke-linecap="round" stroke-linejoin="round" stroke-miterlimit="10" d="
			M855.333,982.331l-71.16,64c0,0-100.241-64-217.54-84l64.117,18.666l-47.978,6.666l46.978-4.666c0,0,47.583,43.334,60.917,94
			s93.506,112,93.506,112s-109.506-1.334-141.506-14.666c-32-13.334-80-10.668-80-10.668s-4-30.666-4-54.666
			s-50.666-100-53.333-122.666c-2.667-22.668,0-49.334,0-49.334l-12-14c0,0,60.082-31.922,168.041-15.627
			c107.959,16.293,138.626,25.627,138.626,25.627"/>
	</g>
	<g id="Left_Arm_2_">
		
			<path fill="#EAEAEA" stroke="#000000" stroke-width="6" stroke-linecap="round" stroke-linejoin="round" stroke-miterlimit="10" d="
			M918.708,710.049c0,0,30.805-30.404,17.038-111.928l-41.915,17.163L918.708,710.049z"/>
		<g>
			<path fill="#E4DDC9" d="M1076.317,910.37c-0.97,0-1.533-0.055-1.637-0.066c-0.99-0.105-1.863-0.695-2.33-1.576l-9.669-18.201
				l-44.928-32.148c-0.93-0.664-1.4-1.801-1.214-2.93l5.051-30.441c0.163-0.982,0.802-1.818,1.706-2.234l50.56-23.268
				c-4.743-5.066-15.087-15.994-27.978-28.887c-3.296-3.295-8.06-7.291-13.576-11.919c-23.679-19.867-58.912-49.428-52.397-84.078
				l-86.599,21.786c-0.245,0.062-0.491,0.091-0.733,0.091c-1.292,0-2.478-0.84-2.869-2.13c-0.05-0.167-5.069-16.819-7.88-34.525
				c-3.996-25.182-1.825-39.876,6.64-44.922c0.207-0.124,0.428-0.222,0.658-0.292c0.638-0.195,15.886-4.772,40.725-4.772
				c24.271,0,61.946,4.583,103.888,26.349h17.979c1.657,0,3,1.343,3,3v6.659c7.227,3.15,17.792,10.326,30.637,26.517
				c0.394,0.496,0.62,1.104,0.646,1.736c0.03,0.697,3.14,70.12,16.777,103.237c13.63,33.104,48.059,69.715,48.405,70.082
				c0.672,0.709,0.955,1.703,0.76,2.66s-0.845,1.76-1.74,2.15l-36.773,16.029c1.178,6.76,2.925,25.188-10.861,33.613
				C1090.041,909.544,1080.037,910.37,1076.317,910.37z"/>
			<path d="M929.847,612.856c26.019,0,62.606,5.156,103.153,26.349h18.714v7.292h-5.729c-0.435-0.038-0.8-0.05-1.094-0.05
				c-0.588,0-0.891,0.05-0.891,0.05h1.984c4.814,0.419,18.128,3.94,37.016,27.748c0,0,3,70.251,17,104.252c14,34,49,71,49,71l-39,17
				c0,0,6,23.664-9,32.832c-11.936,7.295-21.339,8.041-24.683,8.041c-0.858,0-1.317-0.049-1.317-0.049l-10-18.824l-45.5-32.559
				l5.051-30.441l54.326-25c0,0-12.877-14-30.877-32s-77-55-64-98l-91.425,23c0,0-19.909-65.667-2.575-76
				C890,617.497,905.17,612.857,929.847,612.856 M929.854,606.856v6l-0.002-6c-25.287,0-40.952,4.703-41.606,4.903
				c-0.461,0.141-0.903,0.337-1.317,0.584c-9.639,5.746-12.277,21.437-8.066,47.969c2.843,17.909,7.764,34.239,7.972,34.925
				c0.782,2.58,3.155,4.26,5.739,4.26c0.484,0,0.977-0.059,1.467-0.182l82.309-20.707c-1.244,14.155,3.791,28.91,15.041,43.999
				c11.309,15.167,26.655,28.043,38.986,38.39c5.462,4.582,10.18,8.541,13.383,11.742c10.695,10.697,19.633,20.037,25.057,25.783
				l-46.771,21.525c-1.808,0.83-3.086,2.504-3.411,4.467l-5.051,30.441c-0.374,2.258,0.567,4.531,2.428,5.863l44.354,31.738
				l9.339,17.578c0.935,1.758,2.681,2.939,4.66,3.15c0.183,0.02,0.862,0.084,1.956,0.084c3.974,0,14.638-0.869,27.812-8.922
				c13.899-8.494,13.697-25.734,12.599-34.338l34.67-15.113c1.792-0.781,3.091-2.385,3.481-4.301s-0.177-3.9-1.52-5.32
				c-0.342-0.363-34.408-36.611-47.812-69.162c-13.435-32.627-16.523-101.533-16.554-102.225c-0.054-1.265-0.507-2.481-1.294-3.473
				c-12.096-15.247-22.304-22.872-29.986-26.616v-4.695c0-3.313-2.687-6-6-6h-17.249
				C992.246,611.449,954.33,606.856,929.854,606.856L929.854,606.856z"/>
		</g>
		<g id="Left_Hand_1_">
			<path fill="none" stroke="#000000" stroke-width="6" stroke-linecap="round" stroke-linejoin="round" stroke-miterlimit="10" d="
				M1037.506,853.331v-6.666c0,0,26.494,0,51.827,40"/>
		</g>
		
			<path fill="#EAEAEA" stroke="#000000" stroke-width="6" stroke-linecap="round" stroke-linejoin="round" stroke-miterlimit="10" d="
			M837.419,668.369l-19.323-21.01c0,0,19.601-46.465,72.975-76.834c0,0,18.124,12.754,29.24,32.642l15.436-5.044
			c0,0-36.796,40.274-17.038,111.928c0,0-14.444-7.34-64.341-7.844"/>
	</g>
	<g id="Weapon_2_">
		<g>
			<defs>
				<path id="SVGID_1_" d="M1020.667,873.997l26-22.748c0,0,29.499,11.166,39.5,35.832c10.001,24.668,27.834-7.084,27.834-7.084
					l27.333-49.332c0,0-22.001-20.666-32.667-47.334c-10.666-26.666,40.333-36,40.333-36l66.334,9.334l-4.667,145.332l-142,54.668
					L1020.667,873.997z"/>
			</defs>
			<clipPath id="SVGID_2_">
				<use xlink:href="#SVGID_1_"  overflow="visible"/>
			</clipPath>
			
				<path clip-path="url(#SVGID_2_)" fill="#404040" stroke="#000000" stroke-width="6" stroke-linecap="round" stroke-linejoin="round" stroke-miterlimit="10" d="
				M1035.506,878.483c0,0,20.625-27.816,50.809-56.059c30.184-28.24,71.549-58.072,71.549-58.072s25.734,23.773,18.408,41.796
				c0,0-28.305,6.027-35.604,11.293c-7.302,5.264-39.877,25.059-77.201,74.168L1035.506,878.483z"/>
		</g>
		
			<path fill="#404040" stroke="#000000" stroke-width="6" stroke-linecap="round" stroke-linejoin="round" stroke-miterlimit="10" d="
			M1024.551,883.81l24.286-27.871l30.04,24.557c0,0-1.414,21.973-25.651,34.525L1024.551,883.81z"/>
		<g>
			<path fill="#404040" d="M892.039,1155.638c-55.767-0.006-105.338-49.975-107.421-52.102c-0.608-0.621-0.917-1.475-0.847-2.342
				c0.071-0.867,0.515-1.66,1.216-2.176l264.609-194.117c0.52-0.381,1.143-0.58,1.774-0.58c0.237,0,0.476,0.027,0.711,0.086
				c0.861,0.209,1.585,0.789,1.979,1.584c61.012,123.373-32.477,182.963-100.738,226.475c-5.021,3.201-9.765,6.225-14.407,9.242
				c-14.217,9.242-29.986,13.93-46.867,13.93C892.045,1155.638,892.043,1155.638,892.039,1155.638z"/>
			<path d="M1051.371,907.321c64.119,129.654-44.703,186.762-114.091,231.871c-14.849,9.652-30.227,13.445-45.24,13.445
				c-55.147,0-105.278-51.199-105.278-51.199L1051.371,907.321 M1051.371,901.321c-1.265,0-2.51,0.398-3.549,1.162l-264.609,194.117
				c-1.402,1.029-2.289,2.615-2.432,4.35c-0.142,1.732,0.477,3.443,1.693,4.686c0.53,0.541,13.209,13.408,32.944,26.412
				c18.409,12.129,46.646,26.59,76.621,26.59c17.477,0,33.798-4.85,48.511-14.414c4.631-3.012,9.368-6.031,14.384-9.229
				c35.297-22.498,75.303-47.998,99.794-84.076c13.447-19.811,20.84-41.225,21.971-63.646c1.284-25.453-5.428-53.248-19.95-82.611
				c-0.785-1.59-2.233-2.75-3.956-3.17C1052.323,901.378,1051.846,901.321,1051.371,901.321L1051.371,901.321z"/>
		</g>
		<g>
			<path fill="#646464" d="M850.059,1127.394c-31.134,0-56.001-10.707-70.021-30.148c-16.029-22.229-16.77-53.318-2.083-87.541
				c14.466-33.711,42.249-66.566,78.231-92.518c40.144-28.949,85.656-45.553,124.867-45.553c31.134,0,56.001,10.705,70.021,30.146
				c16.029,22.229,16.77,53.318,2.084,87.541c-14.465,33.711-42.248,66.566-78.23,92.516
				C934.782,1110.788,889.27,1127.394,850.059,1127.394z"/>
			<path d="M981.053,874.634c29.192-0.002,53.578,9.475,67.588,28.9c31.819,44.123-1.968,122.865-75.468,175.869
				c-41.139,29.668-86.007,44.99-123.114,44.99c-29.192,0-53.577-9.477-67.588-28.904c-31.819-44.121,1.97-122.863,75.47-175.869
				C899.078,889.954,943.945,874.636,981.053,874.634 M981.062,868.634v6V868.634c-0.001,0-0.009,0-0.009,0
				c-39.83,0.002-85.982,16.813-126.622,46.121c-36.417,26.262-64.557,59.563-79.233,93.766
				c-15.118,35.23-14.264,67.363,2.407,90.479c14.6,20.244,40.331,31.395,72.454,31.395c39.826,0,85.979-16.813,126.624-46.125
				c36.417-26.262,64.556-59.561,79.232-93.764c15.118-35.23,14.263-67.363-2.408-90.48
				C1038.908,879.782,1013.18,868.634,981.062,868.634L981.062,868.634z"/>
		</g>
	</g>
</g>
<g id="Death1">
</g>
<g id="Death2">
	<g id="Layer_7" display="none" opacity="0.2">
	</g>
</g>
<g id="Labels">
</g>
</svg>
