<?xml version="1.0" encoding="utf-8"?>
<!-- Generator: Adobe Illustrator 16.0.0, SVG Export Plug-In . SVG Version: 6.00 Build 0)  -->
<!DOCTYPE svg PUBLIC "-//W3C//DTD SVG 1.1//EN" "http://www.w3.org/Graphics/SVG/1.1/DTD/svg11.dtd">
<svg version="1.1" xmlns="http://www.w3.org/2000/svg" xmlns:xlink="http://www.w3.org/1999/xlink" x="0px" y="0px"
	 width="1508.923px" height="1422.555px" viewBox="0 0 1508.923 1422.555" enable-background="new 0 0 1508.923 1422.555"
	 xml:space="preserve">
<g id="Idle">
	<g id="Pants_5_">
		
			<path fill="#2E2C26" stroke="#000000" stroke-width="6" stroke-linecap="round" stroke-linejoin="round" stroke-miterlimit="10" d="
			M604.498,1285.995c0,0-55,22-101,61l6,35.666h168L604.498,1285.995z"/>
		
			<path fill="#2E2C26" stroke="#000000" stroke-width="6" stroke-linecap="round" stroke-linejoin="round" stroke-miterlimit="10" d="
			M873.498,1285.995c0,0-55,22-101,61l6,35.666h168L873.498,1285.995z"/>
		<g>
			<path fill="#19325A" d="M896.664,1383.661c-1.316,0-2.479-0.859-2.867-2.117c-0.131-0.426-13.287-42.826-26.635-56.811
				c-12.99-13.607-43.586-14.398-43.893-14.406c-1.289-0.025-2.414-0.871-2.801-2.102c-0.385-1.229,0.057-2.566,1.098-3.322
				l5.609-4.08c-0.736-3.018-1.412-8.506,1.473-13.557c1.912-3.348,4.998-5.883,9.213-7.578l-1.951-1.051
				c-0.387-0.207-0.721-0.496-0.982-0.848l-35.334-47.334c-0.387-0.518-0.596-1.148-0.596-1.795c0-0.74-0.187-74.666-15.824-118.32
				c-15.521-43.33-47.895-103.912-49.119-106.197c-0.744-1.242-9.023-15.336-12.822-32.76c-5.299-24.309,0.842-43.17,17.758-54.545
				c7.238-4.867,16.439-7.334,27.343-7.334c42.319,0,97.735,36.439,100.073,37.99c0.841,0.559,1.345,1.506,1.341,2.516
				c-0.003,0.482-0.332,48.719-7.292,89.49c-6.958,40.742-1.473,126.609,6.835,139.904c0.262,0.418,0.416,0.895,0.45,1.387
				c0.016,0.213,0.066,1.334-0.316,2.785c0.67-0.914,1.326-1.934,1.963-3.061c0.398-0.701,1.061-1.213,1.84-1.42
				c0.254-0.068,0.514-0.102,0.771-0.102c0.534,0,1.063,0.143,1.532,0.42c0.418,0.25,10.266,6.205,11.455,16.402
				c0.107,0.93,0.142,1.859,0.102,2.789c0.264-1.064,1.092-1.908,2.166-2.184c0.249-0.064,0.499-0.094,0.746-0.094
				c0.918,0,1.803,0.422,2.379,1.174c1.805,2.35,44.317,57.844,55.653,81.182c10.484,21.582,20.701,75.902,22.617,86.426
				l34.393,12.738c1.363,0.504,2.167,1.912,1.912,3.342c-0.258,1.43-1.5,2.471-2.954,2.471H896.664z"/>
			<path d="M766.333,912.505c41.901-0.002,98.414,37.49,98.414,37.49s-0.25,48-7.25,89s-1.5,128,7.25,142
				c0,0,0.497,7.303-9.595,7.303c-2.295,0-5.135-0.377-8.655-1.303c0,0,5.1,5.4,11.627,5.4c4.352,0,9.338-2.4,13.873-10.4
				c0,0,21.333,12.666,2,31.334c0,0,12.667-5.334,14-14c0,0,44,57.334,55.334,80.666c11.333,23.334,22.666,87.334,22.666,87.334
				l36,13.332H896.664c0,0-13.333-43.334-27.333-58s-46-15.332-46-15.332l7.333-5.334c0,0-7.334-18,15.333-21.334l-8.666-4.666
				l-35.334-47.334c0,0,0-74.666-16-119.332c-16-44.668-49.333-106.668-49.333-106.668s-34.667-57.334,4-83.332
				C747.879,914.478,756.723,912.505,766.333,912.505 M766.338,906.505h-0.004c-11.511,0-21.275,2.639-29.017,7.844
				c-18.024,12.119-24.598,32.063-19.014,57.674c3.836,17.602,12.141,31.916,13.141,33.598c1.64,3.066,33.572,62.924,48.906,105.732
				c15.457,43.154,15.648,116.572,15.648,117.309c0,1.295,0.418,2.553,1.192,3.59l35.066,46.977
				c-2.639,1.742-4.715,3.93-6.211,6.551c-2.83,4.951-2.793,10.131-2.201,13.76l-4.041,2.938c-2.084,1.516-2.967,4.191-2.195,6.648
				c0.769,2.459,3.023,4.15,5.599,4.203c8.217,0.186,31.75,2.965,41.786,13.477c10.682,11.191,22.346,43.945,25.938,55.623
				c0.775,2.518,3.102,4.234,5.734,4.234h105.333c2.905,0,5.393-2.082,5.907-4.941c0.511-2.859-1.098-5.676-3.823-6.686
				l-32.792-12.145c-2.545-13.75-12.389-64.574-22.561-85.516c-11.467-23.609-54.16-79.338-55.971-81.699
				c-1.152-1.5-2.924-2.346-4.76-2.346c-0.13,0-0.263,0.004-0.394,0.012c-2.262-10.129-11.438-15.848-12.543-16.504
				c-0.936-0.557-1.994-0.842-3.063-0.842c-0.515,0-1.033,0.066-1.541,0.201c-0.425,0.113-0.834,0.271-1.218,0.471
				c-2.782-6.217-6.301-25.797-8.032-56.881c-1.732-31.102-0.886-61.672,2.206-79.781c7.002-41.014,7.324-87.998,7.335-89.979
				c0.01-2.021-0.998-3.912-2.683-5.031C865.695,943.425,809.549,906.505,766.338,906.505L766.338,906.505z"/>
		</g>
		
			<path fill="#19325A" stroke="#000000" stroke-width="6" stroke-linecap="round" stroke-linejoin="round" stroke-miterlimit="10" d="
			M722.376,933.005c0,0-107.879,178.49-110.879,179.49s-14,15-14,15l10,7l42,128l-28,17l8.592,28
			c-10.336-25.857-10.936-28.801-13.092-29.332c-6.25-1.543-10.107-1.092-14.75,2.707c-2.75,2.25-4.394,4.396-4.394,4.396
			s26.828,36.229,32.236,56.229c5.408,20,23.408,42,23.408,42h154c0,0-10-3-25-26s-72-164-74-219l-7.75,0.5c0,0,17-6,17-11
			s-9-10-9-10l-14,1.5c0,0,21.5-3,22.5-15.5c0,0-15.5,2.5-26.5-8.5c0,0,15,10,27,2s84.5-80.5,123.5-86"/>
	</g>
	<g id="Head_5_">
		
			<polygon fill="#E4DDC9" stroke="#000000" stroke-width="6" stroke-linecap="round" stroke-linejoin="round" stroke-miterlimit="10" points="
			853.674,520.229 859.707,579.925 785.056,626.667 787.056,567.165 825.806,512.994 		"/>
		
			<path fill="#2E2C26" stroke="#000000" stroke-width="6" stroke-linecap="round" stroke-linejoin="round" stroke-miterlimit="10" d="
			M667.354,377.237c0,0,41.857-33.378,99.673-28.165c57.817,5.214,73.165,27.786,80.673,72.256
			c7.51,44.471,8.345,82.579,8.345,82.579l16.443,23.467l-79.766-3.597c0,0-150.359-65.617-125.168-144.551"/>
		
			<path fill="#2E2C26" stroke="#000000" stroke-width="6" stroke-linecap="round" stroke-linejoin="round" stroke-miterlimit="10" d="
			M650.032,464.42c0,0-33.174-21.775-49.162-94.535l36.431,18.43c0,0,4.556-34.634,31.79-63.518c0,0,6.386,112.93,40.627,123.541
			C743.958,458.949,650.032,464.42,650.032,464.42z"/>
		<g>
			<path fill="#E4DDC9" d="M709.855,631.738c-0.571,0-1.14-0.163-1.635-0.484c-0.584-0.38-14.478-9.594-29.933-35.488
				c-14.096-23.617-32.263-66.355-38.76-135.835c-0.11-1.179,0.483-2.312,1.514-2.893c1.266-0.714,32.013-17.55,119.425-24.382
				c0.078-0.006,0.156-0.009,0.234-0.009c0.736,0,1.449,0.271,2.001,0.765c0.983,0.88,24.093,21.743,25.798,38.626
				c0.032,0.321,0.013,0.645-0.058,0.959l-5.084,22.628l17.545,11.187c2.492-0.772,9.396-3.604,16.841-12.724
				c10.444-12.792,16.779-17.143,17.044-17.322c0.5-0.338,1.086-0.515,1.681-0.515c0.197,0,0.396,0.02,0.592,0.059
				c0.788,0.159,1.479,0.627,1.919,1.3c0.72,1.101,17.449,27.273,2.37,55.108c-0.449,0.829-1.262,1.399-2.194,1.538l-16.457,2.459
				l12.479,21.849c0.767,1.342,0.388,3.047-0.874,3.938c-0.434,0.307-44.271,31.076-123.148,68.94
				C710.742,631.641,710.298,631.738,709.855,631.738z"/>
			<path d="M760.7,435.647c0,0,23.206,20.772,24.814,36.692l-5.546,24.683l20.411,13.014c0,0,9.402-1.453,19.688-14.051
				c10.286-12.599,16.401-16.734,16.401-16.734s16.643,25.456,2.243,52.038l-20.793,3.106l14.653,25.656
				c0,0-43.152,30.493-122.715,68.687c0,0-54.864-35.665-67.341-169.087C642.514,459.651,672.944,442.506,760.7,435.647
				 M760.701,429.647c-0.156,0-0.312,0.006-0.468,0.019c-88.066,6.882-119.375,24.031-120.664,24.758
				c-2.063,1.162-3.249,3.429-3.029,5.786c2.885,30.85,8.279,59.09,16.032,83.936c6.244,20.008,14.029,37.893,23.139,53.157
				c15.808,26.486,30.266,36.071,30.874,36.466c0.989,0.644,2.127,0.97,3.271,0.97c0.885,0,1.772-0.195,2.596-0.591
				c79.102-37.973,123.146-68.888,123.581-69.195c2.524-1.784,3.28-5.192,1.748-7.876l-10.304-18.042l12.121-1.811
				c1.865-0.279,3.491-1.418,4.389-3.076c15.921-29.391-1.738-57.018-2.497-58.18c-0.88-1.346-2.263-2.281-3.838-2.599
				c-0.393-0.079-0.789-0.118-1.184-0.118c-1.189,0-2.361,0.354-3.361,1.03c-0.701,0.474-7.149,5.001-17.688,17.909
				c-5.969,7.311-11.358,10.217-14.123,11.314l-14.551-9.277l4.623-20.572c0.142-0.629,0.18-1.277,0.116-1.918
				c-1.79-17.725-24.229-38.275-26.782-40.561C763.598,430.188,762.171,429.647,760.701,429.647L760.701,429.647z"/>
		</g>
		<path fill="#FFFFFF" stroke="#000000" stroke-miterlimit="10" d="M686.811,515.9c0,0,0.266,5.951,2.17,8.213
			c1.903,2.264,9.683,2.985,9.198-0.148c-0.484-3.134-3.149-14.591-3.149-14.591L686.811,515.9z"/>
		<path d="M684.733,511.922c0,0,0.815,18.01,11.263,16.954c10.446-1.056,11.626-9.266,10.777-17.674c-0.849-8.407-3-14.772-3-14.772
			l-10.587,9.613l1.156,11.441c0.293,2.902,0.36,6.052-1.961,6.286c-2.32,0.234-3.631-2.789-3.933-5.773
			c-0.302-2.985-1.07-7.263-1.07-7.263L684.733,511.922z"/>
		<path fill="none" stroke="#000000" stroke-width="6" stroke-linecap="round" stroke-miterlimit="10" d="M698.104,587.043
			c0,0,8.751-6.246,25.467-6.594"/>
		<path fill="none" stroke="#000000" stroke-width="6" stroke-linecap="round" stroke-linejoin="round" stroke-miterlimit="10" d="
			M835.063,492.711c0,0-9.295,7.472-7.435,25.879c0,0-0.091-9.54,8.994-10.457"/>
		<path d="M662.382,499.607c0,0,2.866,28.354,12.664,25.857c9.799-2.498,57.709-50.558,67.611-49.548
			c9.901,1.008,15.127,2.994,15.127,2.994l-0.804-7.96c0,0-4.493-14.622-25.583-9.477c0,0-46.604,49.939-55.366,50.824
			C667.271,513.185,662.382,499.607,662.382,499.607z"/>
	</g>
	<g id="Right_Arm_2_">
		
			<path fill="#E4DDC9" stroke="#000000" stroke-width="6" stroke-linecap="round" stroke-linejoin="round" stroke-miterlimit="10" d="
			M791.144,681.224c0,0-33.636,75.432-52.194,120.967c-18.555,45.535-4.159,72.238-4.159,72.238l56.178-91.845L791.144,681.224z"/>
	</g>
	<g id="Body_5_">
		
			<path fill="#EAEAEA" stroke="#000000" stroke-width="6" stroke-linecap="round" stroke-linejoin="round" stroke-miterlimit="10" d="
			M751.332,946.663c0,0-26-3.334-40-8.668c0,0,1.333-24.666,13.333-38.666C724.664,899.329,747.332,927.995,751.332,946.663z"/>
		
			<path fill="#EAEAEA" stroke="#000000" stroke-width="6" stroke-linecap="round" stroke-linejoin="round" stroke-miterlimit="10" d="
			M811.498,633.497l51-51c0,0,20,37,21,93s10,142.998,9,153.998s-24,108-9,139c0,0-84-2-140-18c0,0-19-52-30-52l15-7
			c0,0,33-85,38-106.998c5-22,4.5-78,4.5-78S748.498,638.497,811.498,633.497z"/>
		<g>
			<path fill="#EAEAEA" d="M783.498,673.497c-0.769,0-1.537-0.293-2.121-0.879l-36-36c-0.679-0.678-0.992-1.639-0.843-2.586
				c0.15-0.947,0.742-1.768,1.596-2.205l120-61.5c0.438-0.225,0.906-0.33,1.367-0.33c1.053,0,2.07,0.555,2.619,1.535l7,12.5
				c0.674,1.205,0.439,2.715-0.57,3.658l-91,85C784.969,673.229,784.232,673.497,783.498,673.497z"/>
			<path d="M867.498,572.997l7,12.5l-91,85l-36-36L867.498,572.997 M867.492,566.997c-0.922,0-1.855,0.213-2.73,0.66l-120,61.5
				c-1.707,0.875-2.893,2.514-3.191,4.408c-0.297,1.895,0.328,3.818,1.686,5.174l36,36c1.168,1.17,2.705,1.758,4.242,1.758
				c1.469,0,2.94-0.537,4.096-1.615l91-85c2.018-1.885,2.488-4.906,1.139-7.316l-7-12.5
				C871.637,568.108,869.598,566.997,867.492,566.997L867.492,566.997z"/>
		</g>
		
			<path fill="#FFFFFF" stroke="#000000" stroke-width="6" stroke-linecap="round" stroke-linejoin="round" stroke-miterlimit="10" d="
			M808.248,744.247c0,0,11-6.5,26-1.5"/>
	</g>
	<g id="Left_Arm_5_">
		
			<path fill="#EAEAEA" stroke="#000000" stroke-width="6" stroke-linecap="round" stroke-linejoin="round" stroke-miterlimit="10" d="
			M899.293,721.704c0,0,36.449-23.34,39.923-105.944l-44.567,8.081L899.293,721.704z"/>
		
			<path fill="#E4DDC9" stroke="#000000" stroke-width="6" stroke-linecap="round" stroke-linejoin="round" stroke-miterlimit="10" d="
			M897.917,619.356l69.991,32.139l5.072,20.378c0,0-5.934-43.467,7.916-53.676c13.85-10.209,53.06-15.172,63.496-40.911
			c10.436-25.74,11.541-56.375,11.541-56.375l67.25-2.33c0,0-8.41,36.321-35.849,96.823c-27.441,60.502-40.477,98.806-64.871,94.375
			l4.688-4.985c0,0-63.055,7.657-152.057-3.469L897.917,619.356z"/>
		
			<path fill="#EAEAEA" stroke="#000000" stroke-width="6" stroke-linecap="round" stroke-linejoin="round" stroke-miterlimit="10" d="
			M828.438,664.043l-14.536-24.565c0,0,28.827-41.379,87.347-59.995c0,0,15.079,16.241,21.82,38.004l16.147-1.727
			c0,0-44.362,31.751-39.923,105.944c0,0-12.605-10.181-61.307-21.041"/>
	</g>
	<g id="Weapon_3_">
		
			<path fill="#404040" stroke="#000000" stroke-width="6" stroke-linecap="round" stroke-linejoin="round" stroke-miterlimit="10" d="
			M1102.85,453.914c0,0,0.771,34.621-5.747,75.438c-6.518,40.818-20.893,89.75-20.893,89.75s-34.906-2.993-40.176-21.722
			c0,0,18.661-22.12,21.197-30.755c2.538-8.636,16.125-44.249,15.484-105.931L1102.85,453.914z"/>
		
			<path fill="#404040" stroke="#000000" stroke-width="6" stroke-linecap="round" stroke-linejoin="round" stroke-miterlimit="10" d="
			M1108.237,442.989l-2.087,36.909l-38.789-0.973c0,0-12.36-18.223-0.916-43.002L1108.237,442.989z"/>
		<g>
			<path fill="#404040" d="M1072.632,443.868c-0.448,0-0.896-0.101-1.308-0.3c-123.857-60.022-86.567-164.429-59.339-240.663
				c2.002-5.607,3.894-10.903,5.71-16.134c19.873-57.254,84.57-65.803,121.367-65.803c14.123,0,23.52,1.26,23.913,1.313
				c0.862,0.118,1.63,0.604,2.105,1.332c0.476,0.728,0.612,1.626,0.374,2.463l-89.937,315.613c-0.243,0.853-0.851,1.554-1.659,1.916
				C1073.468,443.781,1073.05,443.868,1072.632,443.868z"/>
			<path d="M1139.062,123.969c14.082,0,23.507,1.286,23.507,1.286l-89.937,315.613c-130.164-63.078-79.24-174.926-52.104-253.113
				C1039.897,131.954,1103.961,123.969,1139.062,123.969 M1139.062,117.969c-17.518,0-43.424,1.975-67.361,11.384
				c-28.624,11.251-47.747,30.238-56.84,56.435c-1.811,5.219-3.7,10.509-5.701,16.109c-14.079,39.419-30.037,84.097-27.252,127.614
				c1.529,23.895,8.824,45.342,21.683,63.745c14.597,20.89,36.945,38.726,66.425,53.012c0.826,0.4,1.721,0.601,2.617,0.601
				c0.835,0,1.671-0.174,2.452-0.523c1.618-0.725,2.833-2.128,3.319-3.832l89.936-315.613c0.477-1.673,0.204-3.471-0.747-4.927
				c-0.952-1.456-2.488-2.428-4.211-2.663C1162.979,119.255,1153.387,117.969,1139.062,117.969L1139.062,117.969z"/>
		</g>
		<g>
			<path fill="#646464" d="M1094.339,447.641c-6.171,0-12.251-0.867-18.073-2.578c-26.294-7.724-45.947-31.825-55.338-67.863
				c-9.251-35.497-7.459-78.487,5.045-121.053c22.856-77.807,76.017-134.279,126.404-134.279c6.171,0,12.253,0.867,18.076,2.578
				c26.293,7.724,45.946,31.824,55.336,67.862c9.25,35.498,7.458,78.489-5.046,121.055
				C1197.886,391.168,1144.725,447.641,1094.339,447.641z"/>
			<path d="M1152.376,124.867c5.831-0.001,11.592,0.8,17.23,2.456c52.192,15.332,73.8,98.246,48.258,185.193
				c-22.783,77.553-75.388,132.124-123.525,132.124c-5.83,0-11.589-0.8-17.228-2.456c-52.194-15.333-73.802-98.247-48.26-185.192
				C1051.634,179.438,1104.237,124.87,1152.376,124.867 M1152.381,118.867v6l-0.001-6c-51.692,0.003-106.063,57.382-129.285,136.434
				c-12.655,43.079-14.456,86.64-5.07,122.655c9.667,37.098,30.051,61.952,57.396,69.985c6.096,1.791,12.461,2.699,18.918,2.699
				c51.687,0,106.058-57.379,129.282-136.433c12.655-43.08,14.456-86.641,5.071-122.657c-9.667-37.098-30.05-61.952-57.395-69.984
				C1165.201,119.775,1158.836,118.867,1152.381,118.867L1152.381,118.867z"/>
		</g>
	</g>
	<g id="Left_Hand_2_">
		
			<path fill="#E4DDC9" stroke="#000000" stroke-width="6" stroke-linecap="round" stroke-linejoin="round" stroke-miterlimit="10" d="
			M1031.75,478.247c0,0-7,20.5-7,29.5s0,28.5,26.5,22.5S1031.75,478.247,1031.75,478.247z"/>
		
			<path fill="#E4DDC9" stroke="#000000" stroke-width="6" stroke-linecap="round" stroke-linejoin="round" stroke-miterlimit="10" d="
			M1099.443,542.664c-35.523,4.75-55.776-2.167-55.776-2.167c4-19.834-8-40.5-10.667-45.166c-2.667-4.667-3.333-9.754-3.333-9.754
			l54.666-3.361c-3.333-2.447-58,1.781-58,1.781c-6-4.666,0-26.646,0-26.646s49.334-7.354,68.667-8.688
			c19.333-1.333,30.25,31.5,32,40.084c1.695,8.314-3.65,27.057-3.65,27.057l-7.273,26.416"/>
		
			<path fill="#E4DDC9" stroke="#000000" stroke-width="6" stroke-linecap="round" stroke-linejoin="round" stroke-miterlimit="10" d="
			M1095,448.663c0,0,13.333,8,7.333,20S1095,524.247,1095,524.247"/>
	</g>
</g>
<g id="Attack">
</g>
<g id="Hurt">
</g>
<g id="Death1">
</g>
<g id="Death2">
	<g id="Layer_7" display="none" opacity="0.2">
	</g>
</g>
<g id="Labels">
</g>
</svg>
