<?xml version="1.0" encoding="utf-8"?>
<!-- Generator: Adobe Illustrator 16.0.0, SVG Export Plug-In . SVG Version: 6.00 Build 0)  -->
<!DOCTYPE svg PUBLIC "-//W3C//DTD SVG 1.1//EN" "http://www.w3.org/Graphics/SVG/1.1/DTD/svg11.dtd">
<svg version="1.1" xmlns="http://www.w3.org/2000/svg" xmlns:xlink="http://www.w3.org/1999/xlink" x="0px" y="0px"
	 width="1508.923px" height="1422.555px" viewBox="0 0 1508.923 1422.555" enable-background="new 0 0 1508.923 1422.555"
	 xml:space="preserve">
<g id="Idle">
</g>
<g id="Attack">
	<g id="Pants_1_">
		
			<path fill="#2E2C26" stroke="#000000" stroke-width="6" stroke-linecap="round" stroke-linejoin="round" stroke-miterlimit="10" d="
			M596.498,1285.995c0,0-55,22-101,61l6,35.666h168L596.498,1285.995z"/>
		
			<path fill="#2E2C26" stroke="#000000" stroke-width="6" stroke-linecap="round" stroke-linejoin="round" stroke-miterlimit="10" d="
			M873.498,1285.995c0,0-55,22-101,61l6,35.666h168L873.498,1285.995z"/>
		<g>
			<path fill="#19325A" d="M896.664,1383.661c-1.318,0-2.48-0.859-2.867-2.118c-0.133-0.426-13.287-42.826-26.635-56.811
				c-12.965-13.582-43.586-14.397-43.895-14.404c-1.287-0.027-2.414-0.873-2.799-2.102c-0.385-1.229,0.057-2.566,1.098-3.323
				l5.607-4.079c-0.736-3.018-1.41-8.507,1.475-13.558c1.912-3.348,4.998-5.883,9.213-7.579l-1.951-1.051
				c-0.387-0.207-0.721-0.496-0.982-0.847l-35.334-47.334c-0.387-0.519-0.596-1.148-0.596-1.795c0-0.741-0.188-74.666-15.824-118.32
				c-15.523-43.334-47.898-103.92-49.119-106.197c-0.748-1.249-9.023-15.339-12.822-32.76c-5.299-24.31,0.842-43.17,17.758-54.544
				c7.238-4.867,16.439-7.336,27.346-7.336c42.318,0,97.732,36.44,100.07,37.991c0.842,0.559,1.346,1.505,1.342,2.516
				c-0.004,0.482-0.332,48.718-7.293,89.489c-6.957,40.743-1.473,126.609,6.836,139.905c0.262,0.418,0.416,0.895,0.449,1.387
				c0.016,0.212,0.066,1.334-0.316,2.785c0.67-0.914,1.326-1.935,1.963-3.062c0.398-0.701,1.061-1.213,1.84-1.42
				c0.254-0.067,0.514-0.101,0.771-0.101c0.533,0,1.064,0.143,1.531,0.421c0.418,0.248,10.266,6.204,11.455,16.401
				c0.107,0.931,0.141,1.861,0.102,2.792c0.262-1.065,1.09-1.91,2.166-2.187c0.248-0.063,0.498-0.094,0.746-0.094
				c0.918,0,1.803,0.423,2.379,1.174c1.805,2.351,44.316,57.844,55.652,81.182c10.482,21.583,20.701,75.902,22.617,86.427
				l34.393,12.736c1.363,0.505,2.168,1.913,1.912,3.343c-0.258,1.43-1.5,2.471-2.953,2.471H896.664z"/>
			<path d="M766.336,912.504c41.9-0.002,98.412,37.491,98.412,37.491s-0.25,48-7.25,89s-1.5,128,7.25,142
				c0,0,0.496,7.303-9.596,7.303c-2.295,0-5.135-0.377-8.654-1.303c0,0,5.1,5.4,11.627,5.4c4.354,0,9.338-2.4,13.873-10.4
				c0,0,21.332,12.666,2,31.334c0,0,12.666-5.334,14-14c0,0,44,57.334,55.334,80.666c11.332,23.334,22.666,87.334,22.666,87.334
				l36,13.332H896.664c0,0-13.332-43.334-27.332-58s-46-15.332-46-15.332l7.332-5.334c0,0-7.334-18,15.334-21.334l-8.666-4.666
				l-35.334-47.334c0,0,0-74.666-16-119.332c-16-44.668-49.334-106.668-49.334-106.668s-34.666-57.334,4-83.332
				C747.879,914.478,756.725,912.505,766.336,912.504 M766.338,906.504v6V906.504c-11.518,0.001-21.281,2.641-29.021,7.846
				c-18.023,12.118-24.598,32.062-19.016,57.673c3.838,17.601,12.143,31.916,13.141,33.598
				c1.642,3.066,33.574,62.924,48.908,105.732c15.457,43.154,15.648,116.572,15.648,117.309c0,1.294,0.418,2.553,1.191,3.589
				l35.066,46.977c-2.641,1.744-4.715,3.931-6.213,6.553c-2.828,4.951-2.791,10.131-2.201,13.759l-4.039,2.939
				c-2.084,1.515-2.967,4.19-2.195,6.648c0.771,2.457,3.023,4.148,5.6,4.202c8.217,0.184,31.75,2.965,41.785,13.476
				c10.682,11.191,22.344,43.945,25.938,55.622c0.773,2.518,3.1,4.235,5.734,4.235h105.334c2.904,0,5.393-2.082,5.906-4.941
				c0.512-2.86-1.098-5.676-3.822-6.686l-32.793-12.144c-2.545-13.75-12.391-64.575-22.561-85.517
				c-11.469-23.609-54.16-79.337-55.971-81.698c-1.152-1.501-2.924-2.347-4.76-2.347c-0.131,0-0.264,0.004-0.395,0.013
				c-2.262-10.132-11.438-15.85-12.543-16.506c-0.936-0.555-1.994-0.841-3.063-0.841c-0.516,0-1.033,0.066-1.541,0.201
				c-0.426,0.113-0.834,0.271-1.219,0.471c-2.781-6.218-6.301-25.797-8.031-56.881c-1.732-31.102-0.887-61.673,2.205-79.781
				c7.002-41.014,7.324-87.998,7.336-89.979c0.01-2.021-0.998-3.913-2.684-5.031C865.695,943.424,809.551,906.504,766.338,906.504
				L766.338,906.504z"/>
		</g>
		
			<path fill="#19325A" stroke="#000000" stroke-width="6" stroke-linecap="round" stroke-linejoin="round" stroke-miterlimit="10" d="
			M722.377,933.005c0,0-120.879,178.49-123.879,179.49s-14,15-14,15l10,7l42,128l-28,17l8.592,28
			c-10.336-25.857-10.936-28.801-13.092-29.332c-6.25-1.543-10.107-1.092-14.75,2.707c-2.75,2.25-4.395,4.396-4.395,4.396
			s26.828,36.229,32.236,56.229s23.408,42,23.408,42h154c0,0-10-3-25-26s-72-164-74-219l-7.75,0.5c0,0,17-6,17-11s-9-10-9-10
			l-14,1.5c0,0,21.5-3,22.5-15.5c0,0-15.5,2.5-26.5-8.5c0,0,15,10,27,2s97.5-80.5,136.5-86"/>
	</g>
	<g id="Head_1_">
		
			<polygon fill="#E4DDC9" stroke="#000000" stroke-width="6" stroke-linecap="round" stroke-linejoin="round" stroke-miterlimit="10" points="
			853.498,528.497 853.498,588.497 774.525,627.497 782.498,568.497 826.498,518.497 		"/>
		
			<path fill="#2E2C26" stroke="#000000" stroke-width="6" stroke-linecap="round" stroke-linejoin="round" stroke-miterlimit="10" d="
			M682.498,367.497c0,0,45-29,102-18s70,35,73,80s0,83,0,83l14,25l-79-11.598c0,0-143-80.402-110-156.402"/>
		
			<path fill="#2E2C26" stroke="#000000" stroke-width="6" stroke-linecap="round" stroke-linejoin="round" stroke-miterlimit="10" d="
			M656.498,452.497c0,0-30.816-25-39.408-99l34.393,22c0,0,8.016-34,38.016-60c0,0-5,113,28,127S656.498,452.497,656.498,452.497z"
			/>
		<g>
			<path fill="#E4DDC9" d="M699.498,624.997c-0.674,0-1.34-0.227-1.881-0.662c-0.543-0.436-13.439-11-26.213-38.317
				c-11.648-24.915-25.428-69.262-24.906-139.043c0.008-1.184,0.713-2.252,1.797-2.726c1.162-0.508,29.322-12.447,104.342-12.447
				c5.502,0,11.197,0.066,16.93,0.197c0.818,0.019,1.594,0.371,2.146,0.976c0.889,0.974,21.785,24.055,21.785,41.023
				c0,0.322-0.053,0.643-0.154,0.949l-7.334,22.002l16.332,12.894c2.557-0.518,9.711-2.641,18.035-10.965
				c11.676-11.677,18.418-15.369,18.699-15.521c0.439-0.237,0.93-0.358,1.422-0.358c0.297,0,0.596,0.044,0.885,0.133
				c0.768,0.237,1.408,0.772,1.777,1.486c0.605,1.167,14.619,28.889-3.182,55.068c-0.531,0.78-1.396,1.265-2.338,1.31l-16.621,0.792
				l10.219,22.994c0.629,1.412,0.08,3.07-1.264,3.83c-0.463,0.261-47.172,26.468-129.457,56.209
				C700.186,624.938,699.84,624.997,699.498,624.997z"/>
			<path d="M752.637,434.802c5.379,0,10.99,0.062,16.861,0.195c0,0,21,23,21,39l-8,24l19,15c0,0,9.5-0.5,21-12s18-15,18-15
				s14,27-3,52l-21,1l12,27c0,0-46,26-129,56c0,0-51-41-50-175C649.498,446.997,677.381,434.802,752.637,434.802 M752.637,428.802
				c-75.641,0-104.357,12.18-105.543,12.698c-2.17,0.949-3.578,3.084-3.596,5.452c-0.232,30.983,2.297,59.622,7.512,85.122
				c4.201,20.534,10.148,39.111,17.678,55.214c13.064,27.94,26.486,38.931,27.051,39.385c1.082,0.87,2.412,1.324,3.76,1.324
				c0.686,0,1.375-0.117,2.039-0.357c82.52-29.826,129.449-56.157,129.912-56.419c2.691-1.521,3.787-4.836,2.531-7.661
				l-8.439-18.987l12.242-0.583c1.883-0.09,3.615-1.06,4.675-2.619c18.797-27.642,4.004-56.904,3.366-58.136
				c-0.741-1.427-2.021-2.498-3.559-2.972c-0.578-0.178-1.174-0.267-1.768-0.267c-0.984,0-1.963,0.242-2.846,0.717
				c-0.744,0.401-7.615,4.257-19.396,16.04c-6.674,6.673-12.328,9.022-15.189,9.837l-13.545-10.693l6.668-20.003
				c0.205-0.612,0.309-1.252,0.309-1.897c0-17.813-20.26-40.516-22.57-43.046c-1.104-1.21-2.656-1.915-4.293-1.953
				C763.879,428.868,758.16,428.802,752.637,428.802L752.637,428.802z"/>
		</g>
		<path fill="#FFFFFF" stroke="#000000" stroke-miterlimit="10" d="M687.914,507.414c0,0-0.334,5.947,1.334,8.39
			c1.666,2.443,9.334,3.943,9.166,0.776c-0.166-3.167-1.666-14.833-1.666-14.833L687.914,507.414z"/>
		<path d="M665.248,488.747c0,0,0,28.5,10,27s62.5-44.5,72.25-42.5s14.75,4.5,14.75,4.5v-8c0,0-3-15-24.5-12
			c0,0-51.389,45-60.195,45C668.748,502.747,665.248,488.747,665.248,488.747z"/>
		<path d="M686.248,503.247c0,0-1,18,9.5,18s12.5-8.05,12.5-16.5s-1.5-15-1.5-15l-11.5,8.5v11.5c0,2.917-0.25,6.057-2.584,6.057
			c-2.332,0-3.332-3.14-3.332-6.14s-0.334-7.333-0.334-7.333L686.248,503.247z"/>
		<path fill="none" stroke="#000000" stroke-width="6" stroke-linecap="round" stroke-miterlimit="10" d="M691.998,579.331
			c0,0,9.334-5.333,26-4"/>
		<path fill="none" stroke="#000000" stroke-width="6" stroke-linecap="round" stroke-linejoin="round" stroke-miterlimit="10" d="
			M837.748,499.247c0,0-10,6.5-10,25c0,0,0.869-9.5,10-9.5"/>
	</g>
	<g id="Right_Arm_1_">
		<g>
			<path fill="#E4DDC9" d="M971.748,899.495c-0.238,0-0.477-0.028-0.711-0.085c-0.809-0.197-1.5-0.723-1.908-1.449
				c-2.689-4.806-65.881-117.969-65.881-142.964c0-14.018,1.15-29.611,2.137-40.397l-0.564,0.941
				c-0.561,0.934-1.553,1.457-2.574,1.457c-0.473,0-0.949-0.111-1.395-0.345l-29.5-15.5c-0.879-0.463-1.475-1.332-1.586-2.32l-8-71
				c-0.135-1.202,0.465-2.367,1.52-2.956c0.457-0.255,0.961-0.38,1.463-0.38c0.656,0,1.311,0.216,1.852,0.64
				c0.576,0.452,57.793,45.231,77.043,51.247c0.801,0.25,1.443,0.816,1.799,1.543c4.316-0.892,9.086-1.661,12.693-1.661
				c7.059,0,8.113,3.278,8.113,5.231c0,2.303-0.553,4.807-1.287,7.116l1.33-0.738c0.459-0.255,0.959-0.377,1.455-0.377
				c0.9,0,1.783,0.405,2.369,1.158c0.455,0.584,11.133,14.563,11.133,36.342c0,11.156-2.689,21.232-5.289,30.977
				c-2.424,9.079-4.711,17.654-4.711,26.522c0,14.646,6.262,33.941,8.773,41.097l13.645-5.272c0.354-0.137,0.719-0.202,1.08-0.202
				c0.922,0,1.816,0.425,2.395,1.191c6.295,8.333,26.701,36.246,25.037,45.598c-0.354,1.986-1.451,3.061-2.309,3.611
				c-6.906,4.44-46.078,30.223-46.473,30.482C972.902,899.326,972.328,899.495,971.748,899.495z"/>
			<path d="M864.748,627.497c0,0,58,45.5,78,51.75l-7.5,4.25c0,0,14.811-4.231,22.887-4.231c3.029,0,5.113,0.595,5.113,2.231
				c0,6-4.5,14-4.5,14l9-5c0,0,10.5,13.5,10.5,34.5s-10,38.5-10,57.499s10,44.999,10,44.999l16.5-6.377c0,0,30.5,40.377,23.5,44.877
				s-46.5,30.5-46.5,30.5s-65.5-116.998-65.5-141.498s3.5-53.5,3.5-53.5l-7.5,12.5l-29.5-15.5L864.748,627.497 M864.746,621.497
				c-1.002,0-2.008,0.251-2.922,0.76c-2.111,1.178-3.309,3.509-3.039,5.912l8,71c0.223,1.977,1.41,3.714,3.172,4.64l29.5,15.5
				c0.779,0.409,1.607,0.63,2.436,0.679c-0.842,10.201-1.645,23.06-1.645,35.009c0,4.143,0,16.746,33.398,82.648
				c16.242,32.052,32.701,61.487,32.865,61.78c0.814,1.454,2.195,2.504,3.814,2.898c0.469,0.114,0.947,0.171,1.422,0.171
				c1.162,0,2.311-0.338,3.299-0.988c0.395-0.26,39.553-26.033,46.445-30.465c1.922-1.235,3.215-3.228,3.639-5.608
				c0.689-3.87-0.26-10.372-12.527-29.249c-6.357-9.782-12.797-18.324-13.068-18.683c-1.158-1.535-2.948-2.384-4.789-2.384
				c-0.725,0-1.457,0.131-2.162,0.403l-10.732,4.148c-2.813-8.439-7.604-24.65-7.604-37.174c0-8.475,2.238-16.865,4.609-25.749
				c2.65-9.932,5.391-20.2,5.391-31.75c0-22.796-11.283-37.566-11.764-38.184c-0.898-1.154-2.145-1.899-3.488-2.185
				c0.16-1.052,0.252-2.104,0.252-3.131c0-1.931-0.801-8.231-11.111-8.231c-3.363,0-7.57,0.603-11.553,1.368
				c-0.592-0.492-1.283-0.875-2.047-1.113c-15.541-4.856-60.193-38.276-76.086-50.744
				C867.371,621.929,866.063,621.497,864.746,621.497L864.746,621.497z"/>
		</g>
		
			<path fill="#E4DDC9" stroke="#000000" stroke-width="6" stroke-linecap="round" stroke-linejoin="round" stroke-miterlimit="10" d="
			M1011.301,910.216c0,0,11.447-1.971,12.447-5.721s25-13.25,25-17.75s-11-27-23-30.5l-39,14L1011.301,910.216z"/>
		<g>
			<path fill="#E4DDC9" d="M997.25,933.745c-0.943,0-1.863-0.444-2.443-1.255l-24.5-34.25c-0.891-1.247-0.699-2.966,0.445-3.985
				l20.5-18.25c0.555-0.493,1.266-0.76,1.996-0.76c0.162,0,0.328,0.014,0.492,0.041c0.895,0.148,1.674,0.694,2.119,1.483l24,42.5
				c0.404,0.716,0.498,1.566,0.258,2.353c-0.24,0.786-0.793,1.438-1.527,1.807l-20,10
				C998.16,933.643,997.703,933.745,997.25,933.745z"/>
			<path d="M993.248,878.245l24,42.5l-20,10l-24.5-34.25L993.248,878.245 M993.248,872.245c-1.461,0-2.883,0.533-3.99,1.519
				l-20.5,18.25c-2.291,2.039-2.674,5.478-0.891,7.973l24.5,34.25c1.16,1.62,2.998,2.51,4.883,2.51c0.906,0,1.824-0.206,2.682-0.635
				l20-10c1.469-0.734,2.574-2.041,3.055-3.613c0.48-1.571,0.295-3.271-0.514-4.703l-24-42.5c-0.893-1.58-2.451-2.671-4.242-2.969
				C993.904,872.271,993.574,872.245,993.248,872.245L993.248,872.245z"/>
		</g>
		
			<path fill="#E4DDC9" stroke="#000000" stroke-width="6" stroke-linecap="round" stroke-linejoin="round" stroke-miterlimit="10" d="
			M985.748,836.745c0,0,7.5,5.172,4.5,11.336s-13,25.664-13,25.664s20-26.5,26-24s16.043,31.5,16.043,31.5l-46.543,26l-24.5-48.5"/>
	</g>
	<g id="Body_1_">
		
			<path fill="#EAEAEA" stroke="#000000" stroke-width="6" stroke-linecap="round" stroke-linejoin="round" stroke-miterlimit="10" d="
			M751.332,946.663c0,0-26-3.334-40-8.668c0,0,1.332-24.666,13.332-38.666C724.664,899.329,747.332,927.995,751.332,946.663z"/>
		
			<path fill="#EAEAEA" stroke="#000000" stroke-width="6" stroke-linecap="round" stroke-linejoin="round" stroke-miterlimit="10" d="
			M811.498,633.497l51-51c0,0,20,37,21,93s10,142.998,9,153.998s-24,108-9,139c0,0-84-2-140-18c0,0-19-52-30-52l15-7
			c0,0,33-85,38-106.999s4.5-77.999,4.5-77.999S748.498,638.497,811.498,633.497z"/>
		<g>
			<path fill="#EAEAEA" d="M783.498,673.497c-0.77,0-1.537-0.294-2.121-0.879l-36-36c-0.68-0.678-0.992-1.64-0.844-2.587
				c0.15-0.947,0.742-1.767,1.596-2.204l120-61.5c0.438-0.224,0.906-0.331,1.367-0.331c1.053,0,2.07,0.556,2.619,1.535l7,12.5
				c0.674,1.205,0.439,2.715-0.57,3.658l-91,85C784.969,673.229,784.232,673.497,783.498,673.497z"/>
			<path d="M867.498,572.997l7,12.5l-91,85l-36-36L867.498,572.997 M867.494,566.996c-0.924,0-1.857,0.213-2.732,0.661l-120,61.5
				c-1.707,0.875-2.893,2.513-3.191,4.408c-0.297,1.895,0.328,3.818,1.686,5.174l36,36c1.168,1.169,2.705,1.757,4.242,1.757
				c1.469,0,2.939-0.537,4.096-1.615l91-85c2.018-1.886,2.488-4.906,1.139-7.316l-7-12.5
				C871.637,568.107,869.598,566.996,867.494,566.996L867.494,566.996z"/>
		</g>
		
			<path fill="#FFFFFF" stroke="#000000" stroke-width="6" stroke-linecap="round" stroke-linejoin="round" stroke-miterlimit="10" d="
			M808.248,744.247c0,0,11-6.5,26-1.5"/>
	</g>
	<g id="Weapon_1_">
		
			<path fill="#404040" stroke="#000000" stroke-width="6" stroke-linecap="round" stroke-linejoin="round" stroke-miterlimit="10" d="
			M505.498,922.995c0,0,33-10.5,74-15.75s92-5.25,92-5.25s6.967,34.334-9.518,44.668c0,0-26.482-11.668-35.482-11.668s-47-3-106,15
			L505.498,922.995z"/>
		
			<path fill="#404040" stroke="#000000" stroke-width="6" stroke-linecap="round" stroke-linejoin="round" stroke-miterlimit="10" d="
			M493.498,920.905l36-8.4l10,37.49c0,0-14,16.994-41,12.998L493.498,920.905z"/>
		<g>
			<path fill="#404040" d="M339.721,1082.787c-16.945,0-33.469-0.948-49.449-1.865c-5.943-0.341-11.557-0.663-17.084-0.931
				c-34.945-1.69-63.832-23.296-83.535-62.481c-14.713-29.257-19.107-57.542-19.287-58.732c-0.131-0.859,0.119-1.733,0.684-2.396
				c0.564-0.661,1.389-1.046,2.258-1.053c0,0,328.183-2.666,328.191-2.666c0.877,0,1.71,0.384,2.281,1.052
				c0.576,0.675,0.824,1.568,0.678,2.442c-18.75,112.231-97.887,126.63-164.732,126.63
				C339.721,1082.787,339.725,1082.787,339.721,1082.787z"/>
			<path d="M501.498,955.663h0.004 M501.498,955.663c-17.943,107.4-91.324,124.124-161.777,124.124
				c-23.135,0-45.955-1.804-66.389-2.792c-82.666-4-100-118.666-100-118.666L501.498,955.663 M501.502,949.663h-0.004
				c-0.023,0-0.047,0-0.068,0l-328.146,2.666c-1.74,0.015-3.387,0.782-4.516,2.105c-1.129,1.323-1.629,3.071-1.369,4.791
				c0.184,1.209,4.648,29.953,19.572,59.632c8.877,17.652,19.631,31.941,31.965,42.472c15.688,13.394,33.893,20.681,54.105,21.659
				c5.516,0.267,11.123,0.589,17.061,0.929c16.021,0.92,32.588,1.87,49.619,1.87c28.273,0,69.781-2.347,103.662-22.64
				c16.318-9.773,29.861-23.091,40.252-39.582c11.35-18.016,19.34-40.457,23.746-66.709c0.078-0.386,0.119-0.785,0.119-1.193
				C507.5,952.35,504.816,949.663,501.502,949.663L501.502,949.663z"/>
		</g>
		<g>
			<path fill="#646464" d="M337.416,1052.495c-44.365,0-86.119-10.397-117.57-29.277c-31.93-19.168-49.514-44.817-49.514-72.223
				c0-27.404,17.584-53.054,49.514-72.222c31.451-18.88,73.205-29.278,117.57-29.278c44.363,0,86.115,10.398,117.566,29.278
				c31.93,19.168,49.516,44.817,49.516,72.222c0,27.405-17.586,53.055-49.516,72.223
				C423.531,1042.098,381.779,1052.495,337.416,1052.495z"/>
			<path d="M337.416,852.495c90.619,0,164.082,44.102,164.082,98.5c0,54.4-73.463,98.5-164.082,98.5
				c-90.621,0-164.083-44.1-164.083-98.5C173.333,896.597,246.795,852.495,337.416,852.495 M337.416,846.495
				c-44.9,0-87.203,10.55-119.113,29.706c-32.869,19.731-50.971,46.294-50.971,74.794c0,28.501,18.102,55.063,50.971,74.795
				c31.91,19.155,74.212,29.705,119.113,29.705c44.898,0,87.201-10.55,119.111-29.706c32.869-19.73,50.971-46.293,50.971-74.794
				c0-28.5-18.102-55.063-50.971-74.794C424.617,857.045,382.314,846.495,337.416,846.495L337.416,846.495z"/>
		</g>
	</g>
	<g id="Left_Arm_1_">
		<g>
			<path fill="#E4DDC9" d="M574.955,965.992c-8.184,0-10.297-3.938-10.758-5.17l-27.5-71.5c-0.352-0.917-0.234-1.948,0.318-2.762
				c0.189-0.28,19.523-28.725,62.553-88.076c43.275-59.687,126.318-121.042,127.152-121.655c0.521-0.383,1.145-0.583,1.777-0.583
				c0.281,0,0.566,0.04,0.844,0.121c5.682,1.666,55.578,16.929,58.029,39.601c0.996,9.23-5.877,17.948-20.434,25.91
				c-57.545,31.478-149.541,111.815-150.463,112.623c-0.471,0.411-1.057,0.666-1.678,0.729l-2.025,0.202
				c8.82,6.312,24.514,17.751,34.178,26.035c14.904,12.773,5.084,64.508,3.916,70.364c-0.193,0.966-0.848,1.776-1.752,2.167
				c-0.381,0.165-0.785,0.246-1.189,0.246c-0.555,0-1.105-0.153-1.588-0.455c-0.016-0.009-4.281-2.483-13.131-2.483
				c-8.938,0-19.213,2.423-30.541,7.202C590.895,963.475,581.572,965.992,574.955,965.992z"/>
			<path d="M728.498,679.247c0,0,95.5,28,37,60s-151,112.998-151,112.998l-10,1c0,0,26.5,18.5,40.5,30.5s2.926,67.5,2.926,67.5
				s-4.709-2.938-14.719-2.938c-7.506,0-17.994,1.653-31.707,7.438c-13.293,5.608-21.494,7.247-26.543,7.247
				c-7.102,0-7.957-3.247-7.957-3.247l-27.5-71.5c0,0,19-28,62.5-88C645.498,740.247,728.498,679.247,728.498,679.247
				 M728.498,673.247c-1.264,0-2.512,0.399-3.553,1.166c-0.211,0.154-21.25,15.657-47.32,38.305
				c-24.129,20.962-57.682,52.553-80.484,84.006c-43.057,59.389-62.418,87.872-62.607,88.152c-1.104,1.626-1.342,3.689-0.635,5.523
				l27.492,71.479c0.758,2.035,3.645,7.114,13.564,7.114c7.02,0,16.734-2.598,28.875-7.719c10.957-4.623,20.842-6.967,29.375-6.967
				c7.328,0,11.102,1.811,11.598,2.066c0.971,0.65,2.059,0.97,3.164,0.97c0.777,0,1.564-0.157,2.326-0.467
				c1.867-0.76,3.119-2.479,3.514-4.457c0.117-0.582,2.857-14.439,3.891-30.027c1.504-22.708-1.373-36.84-8.795-43.202
				c-8.355-7.161-20.855-16.438-29.857-22.948c8.016-6.97,94.504-81.738,149.332-111.73c15.723-8.6,23.117-18.312,21.977-28.864
				c-1.195-11.046-12.018-21.572-32.17-31.283c-13.969-6.73-27.432-10.708-27.998-10.875
				C729.631,673.327,729.063,673.247,728.498,673.247L728.498,673.247z"/>
		</g>
		<path fill="none" stroke="#000000" stroke-width="6" stroke-linecap="round" stroke-linejoin="round" stroke-miterlimit="10" d="
			M632.748,931.995c0,0-36.5,14.5-64.5,13c0,0-10.531-7.18-19.266-24.09"/>
		
			<path fill="#EAEAEA" stroke="#000000" stroke-width="6" stroke-linecap="round" stroke-linejoin="round" stroke-miterlimit="10" d="
			M853.498,658.497c0,0-10.127-42-39.486-42c-29.361,0-103.514,70-103.514,70h-22c0,0,52,52,57,83c0,0,71-52,90-52"/>
	</g>
</g>
<g id="Hurt">
</g>
<g id="Death1">
</g>
<g id="Death2">
	<g id="Layer_7" display="none" opacity="0.2">
	</g>
</g>
<g id="Labels">
</g>
</svg>
