<?xml version="1.0" encoding="utf-8"?>
<!-- Generator: Adobe Illustrator 16.0.0, SVG Export Plug-In . SVG Version: 6.00 Build 0)  -->
<!DOCTYPE svg PUBLIC "-//W3C//DTD SVG 1.1//EN" "http://www.w3.org/Graphics/SVG/1.1/DTD/svg11.dtd">
<svg version="1.1" xmlns="http://www.w3.org/2000/svg" xmlns:xlink="http://www.w3.org/1999/xlink" x="0px" y="0px"
	 width="1508.923px" height="1422.555px" viewBox="0 0 1508.923 1422.555" enable-background="new 0 0 1508.923 1422.555"
	 xml:space="preserve">
<g id="Idle">
</g>
<g id="Attack">
</g>
<g id="Hurt">
</g>
<g id="Death1">
	<g id="Head_3_">
		
			<polygon fill="#E4DDC9" stroke="#000000" stroke-width="6" stroke-linecap="round" stroke-linejoin="round" stroke-miterlimit="10" points="
			862.183,692.067 860.348,791.233 781.375,830.233 789.348,771.233 817.848,707.083 		"/>
		
			<path fill="#2E2C26" stroke="#000000" stroke-width="6" stroke-linecap="round" stroke-linejoin="round" stroke-miterlimit="10" d="
			M646.124,601.078c0,0,31.988-42.928,89.229-52.596c57.241-9.668,77.825,8.255,96.402,49.352
			c18.576,41.096,29.079,77.739,29.079,77.739l21.873,18.51l-78.056,16.816c0,0-162.106-25.204-157.826-107.949"/>
		
			<path fill="#2E2C26" stroke="#000000" stroke-width="6" stroke-linecap="round" stroke-linejoin="round" stroke-miterlimit="10" d="
			M651.554,689.8c0,0-37.622-12.619-71.597-78.917l39.921,8.555c0,0-4.405-34.653,14.584-69.516c0,0,34.908,107.589,70.722,109.14
			C740.996,660.611,651.554,689.8,651.554,689.8z"/>
		<g>
			<path fill="#E4DDC9" d="M751.215,836.489c-0.315,0-0.633-0.049-0.941-0.15c-0.661-0.219-16.441-5.595-37.977-26.705
				c-19.641-19.254-48.083-55.963-72.044-121.503c-0.406-1.112-0.121-2.358,0.729-3.183c1.043-1.012,26.494-25.118,109.29-53.963
				c0.321-0.112,0.654-0.167,0.987-0.167c0.471,0,0.939,0.111,1.366,0.329c1.175,0.601,28.832,14.897,34.777,30.79
				c0.113,0.302,0.177,0.621,0.188,0.943l0.839,23.176l19.815,6.355c2.213-1.382,8.169-5.877,13.049-16.59
				c6.846-15.028,11.866-20.848,12.076-21.088c0.529-0.605,1.279-0.972,2.082-1.019c0.059-0.004,0.117-0.005,0.176-0.005
				c0.741,0,1.458,0.274,2.011,0.773c0.976,0.881,23.813,21.936,16.313,52.692c-0.224,0.916-0.865,1.674-1.731,2.046l-15.29,6.564
				l17.628,17.956c1.083,1.102,1.15,2.847,0.157,4.029c-0.342,0.407-34.908,41.318-101.558,98.004
				C752.608,836.243,751.917,836.489,751.215,836.489z"/>
			<path d="M751.259,633.818c0,0,27.728,14.184,33.334,29.17l0.915,25.282l23.052,7.393c0,0,8.723-3.797,15.465-18.597
				c6.741-14.8,11.604-20.356,11.604-20.356s22.572,20.383,15.409,49.755l-19.318,8.295l20.699,21.084
				c0,0-33.975,40.469-101.203,97.646c0,0-62.132-20.531-108.145-146.389C643.07,687.101,668.137,662.776,751.259,633.818
				 M751.259,627.818c-0.666,0-1.333,0.111-1.974,0.334c-83.416,29.061-109.331,53.612-110.394,54.643
				c-1.698,1.649-2.27,4.142-1.456,6.367c10.639,29.1,23.04,55.038,36.859,77.094c11.129,17.762,23.208,33.076,35.902,45.521
				c22.025,21.592,38.447,27.184,39.135,27.41c0.616,0.203,1.252,0.303,1.882,0.303c1.405,0,2.787-0.492,3.888-1.43
				c66.84-56.848,101.568-97.951,101.912-98.359c1.986-2.367,1.851-5.855-0.314-8.061l-14.556-14.828l11.261-4.834
				c1.732-0.744,3.016-2.26,3.462-4.092c7.92-32.475-16.187-54.7-17.217-55.63c-1.105-0.999-2.54-1.547-4.021-1.547
				c-0.117,0-0.234,0.003-0.352,0.01c-1.604,0.094-3.104,0.829-4.163,2.038c-0.558,0.637-5.643,6.656-12.549,21.82
				c-3.9,8.563-8.424,12.779-10.781,14.535l-16.432-5.27l-0.763-21.072c-0.023-0.645-0.15-1.281-0.376-1.886
				c-6.242-16.684-33.172-30.849-36.222-32.409C753.137,628.039,752.199,627.818,751.259,627.818L751.259,627.818z"/>
		</g>
		<path fill="none" stroke="#000000" stroke-width="6" stroke-linecap="round" stroke-miterlimit="10" d="M745.6,775.733
			c0,0,9.388-9.932,51.09-22.423"/>
		<path fill="none" stroke="#000000" stroke-width="6" stroke-linecap="round" stroke-linejoin="round" stroke-miterlimit="10" d="
			M837.694,670.083c0,0-7.089,9.591-0.607,26.919c0,0-2.515-9.202,6.038-12.402"/>
		<path d="M679.449,730.687c0,0,9.986,26.693,18.826,21.784c8.841-4.908,42.947-63.577,52.78-65.12
			c9.832-1.543,15.392-0.953,15.392-0.953l-2.803-7.493c0,0-8.065-12.998-27.151-2.655c0,0-32.365,60.152-40.613,63.238
			C687.633,742.572,679.449,730.687,679.449,730.687z"/>
		<path d="M701.85,742.233c0,0,28.25-27.25,48-33.5l-50,37.5L701.85,742.233z"/>
	</g>
	<g id="Pants_3_">
		
			<path fill="#2E2C26" stroke="#000000" stroke-width="6" stroke-linecap="round" stroke-linejoin="round" stroke-miterlimit="10" d="
			M994.247,1377.854c0,0,58.932,6.01,117.771-7.216l11.221-34.382l-148.849-77.897L994.247,1377.854z"/>
		
			<path fill="#19325A" stroke="#000000" stroke-width="6" stroke-linecap="round" stroke-linejoin="round" stroke-miterlimit="10" d="
			M745.6,1144.871c0,0-57.517,118.454-66.15,235.79l369.366,2l-74.425-128.683l-151.529,38.483c0,0,76.626-69.062,75.739-143.062
			S745.6,1144.871,745.6,1144.871z"/>
	</g>
	<g id="Body_3_">
		
			<path fill="#EAEAEA" stroke="#000000" stroke-width="6" stroke-linecap="round" stroke-linejoin="round" stroke-miterlimit="10" d="
			M771.157,1149.4c0,0-26-3.334-40-8.668c0,0,1.332-24.666,13.332-38.666C744.489,1102.066,767.157,1130.732,771.157,1149.4z"/>
		
			<path fill="#EAEAEA" stroke="#000000" stroke-width="6" stroke-linecap="round" stroke-linejoin="round" stroke-miterlimit="10" d="
			M831.323,836.234l51-51c0,0,20,37,21,93c1,56.001,10,142.998,9,153.998s-24,108-9,139c0,0-84-2-140-18c0,0-19-52-30-52l15-7
			c0,0,33-85,38-106.998c5-21.999,4.5-78,4.5-78S768.323,841.234,831.323,836.234z"/>
		<g>
			<path fill="#EAEAEA" d="M803.323,876.234c-0.77,0-1.537-0.294-2.121-0.879l-36-36c-0.679-0.678-0.992-1.64-0.843-2.587
				c0.148-0.947,0.741-1.767,1.595-2.204l120-61.5c0.438-0.224,0.905-0.331,1.366-0.331c1.053,0,2.071,0.556,2.62,1.535l7,12.5
				c0.675,1.205,0.439,2.716-0.57,3.658l-91,85C804.793,875.966,804.058,876.234,803.323,876.234z"/>
			<path d="M887.323,775.734l7,12.5l-91,85l-36-36L887.323,775.734 M887.318,769.733c-0.923,0-1.856,0.213-2.731,0.661l-120,61.5
				c-1.707,0.875-2.894,2.514-3.191,4.408s0.328,3.818,1.685,5.174l36,36c1.169,1.17,2.706,1.758,4.243,1.758
				c1.47,0,2.94-0.536,4.096-1.615l91-85c2.018-1.886,2.488-4.906,1.139-7.316l-7-12.5
				C891.461,770.845,889.423,769.733,887.318,769.733L887.318,769.733z"/>
		</g>
	</g>
	<g id="Left_Arm_3_">
		
			<path fill="#EAEAEA" stroke="#000000" stroke-width="6" stroke-linecap="round" stroke-linejoin="round" stroke-miterlimit="10" d="
			M850.551,933.388c0,0,42.622,7.526,101.141-50.879l-38.255-24.25L850.551,933.388z"/>
		
			<path fill="#E4DDC9" stroke="#000000" stroke-width="6" stroke-linecap="round" stroke-linejoin="round" stroke-miterlimit="10" d="
			M894.323,1149.4c0,0-14.473-155.878-25.842-189.737s-13.333-63.682-13.333-63.682s2.504-46.317,57.252-55.984l39.291,98l13.124,16
			l-5.667,8.332l-26.667,163.404c0,0,32.668,9.928,32.334,31.262s0.002,36,0.002,36s-3.185-14.666,9.573-14.666
			s10.091,50.667-19.242,56s-29.333-5.334-29.333-5.334s-2.83,0-13.415-1.333S894.323,1149.4,894.323,1149.4z"/>
		
			<path fill="#EAEAEA" stroke="#000000" stroke-width="6" stroke-linecap="round" stroke-linejoin="round" stroke-miterlimit="10" d="
			M837.499,842.973l5.953-27.918c0,0,49.236-10.904,104.893,15.049c0,0,0.087,22.161-9.699,42.737l13.046,9.668
			c0,0-54.139-6.701-101.141,50.879c0,0-2.373-16.027-30.838-57.012"/>
	</g>
</g>
<g id="Death2">
	<g id="Layer_7" display="none" opacity="0.2">
	</g>
</g>
<g id="Labels">
</g>
</svg>
