<?xml version="1.0" encoding="utf-8"?>
<!-- Generator: Adobe Illustrator 16.0.0, SVG Export Plug-In . SVG Version: 6.00 Build 0)  -->
<!DOCTYPE svg PUBLIC "-//W3C//DTD SVG 1.1//EN" "http://www.w3.org/Graphics/SVG/1.1/DTD/svg11.dtd">
<svg version="1.1" xmlns="http://www.w3.org/2000/svg" xmlns:xlink="http://www.w3.org/1999/xlink" x="0px" y="0px"
	 width="1508.923px" height="1422.555px" viewBox="0 0 1508.923 1422.555" enable-background="new 0 0 1508.923 1422.555"
	 xml:space="preserve">
<g id="Idle">
	<g id="Pants">
		
			<path fill="#2E2C26" stroke="#000000" stroke-width="6" stroke-linecap="round" stroke-linejoin="round" stroke-miterlimit="10" d="
			M596.498,1285.995c0,0-55,22-101,61l6,35.666h168L596.498,1285.995z"/>
		
			<path fill="#2E2C26" stroke="#000000" stroke-width="6" stroke-linecap="round" stroke-linejoin="round" stroke-miterlimit="10" d="
			M873.498,1285.995c0,0-55,22-101,61l6,35.666h168L873.498,1285.995z"/>
		<g>
			<path fill="#19325A" d="M896.664,1383.661c-1.316,0-2.479-0.859-2.867-2.117c-0.131-0.426-13.287-42.826-26.635-56.811
				c-12.99-13.607-43.586-14.398-43.893-14.406c-1.289-0.025-2.414-0.871-2.801-2.102c-0.385-1.229,0.057-2.566,1.098-3.322
				l5.609-4.08c-0.736-3.018-1.412-8.506,1.473-13.557c1.912-3.348,4.998-5.883,9.213-7.578l-1.951-1.051
				c-0.387-0.207-0.721-0.496-0.982-0.848l-35.334-47.334c-0.387-0.518-0.596-1.148-0.596-1.795c0-0.74-0.188-74.666-15.824-118.32
				c-15.521-43.33-47.895-103.912-49.119-106.197c-0.744-1.242-9.023-15.336-12.822-32.76c-5.299-24.309,0.842-43.17,17.758-54.545
				c7.238-4.867,16.439-7.334,27.344-7.334c42.318,0,97.734,36.439,100.072,37.99c0.842,0.559,1.346,1.506,1.342,2.516
				c-0.004,0.482-0.332,48.719-7.293,89.49c-6.957,40.742-1.473,126.609,6.836,139.904c0.262,0.418,0.416,0.895,0.449,1.387
				c0.016,0.213,0.066,1.334-0.316,2.785c0.67-0.914,1.326-1.934,1.963-3.061c0.398-0.701,1.061-1.213,1.84-1.42
				c0.254-0.068,0.514-0.102,0.771-0.102c0.533,0,1.063,0.143,1.531,0.42c0.418,0.25,10.266,6.205,11.455,16.402
				c0.107,0.93,0.143,1.859,0.102,2.789c0.264-1.064,1.092-1.908,2.166-2.184c0.248-0.064,0.498-0.094,0.746-0.094
				c0.918,0,1.803,0.422,2.379,1.174c1.805,2.35,44.316,57.844,55.652,81.182c10.484,21.582,20.701,75.902,22.617,86.426
				l34.393,12.738c1.363,0.504,2.168,1.912,1.912,3.342c-0.258,1.43-1.5,2.471-2.953,2.471H896.664z"/>
			<path d="M766.334,912.505c41.9-0.002,98.414,37.49,98.414,37.49s-0.25,48-7.25,89s-1.5,128,7.25,142c0,0,0.496,7.303-9.596,7.303
				c-2.295,0-5.135-0.377-8.654-1.303c0,0,5.1,5.4,11.627,5.4c4.352,0,9.338-2.4,13.873-10.4c0,0,21.332,12.666,2,31.334
				c0,0,12.666-5.334,14-14c0,0,44,57.334,55.334,80.666c11.332,23.334,22.666,87.334,22.666,87.334l36,13.332H896.664
				c0,0-13.332-43.334-27.332-58s-46-15.332-46-15.332l7.332-5.334c0,0-7.334-18,15.334-21.334l-8.666-4.666l-35.334-47.334
				c0,0,0-74.666-16-119.332c-16-44.668-49.334-106.668-49.334-106.668s-34.666-57.334,4-83.332
				C747.879,914.478,756.723,912.505,766.334,912.505 M766.338,906.505h-0.004c-11.512,0-21.275,2.639-29.018,7.844
				c-18.023,12.119-24.598,32.063-19.014,57.674c3.836,17.602,12.141,31.916,13.141,33.598
				c1.641,3.066,33.572,62.924,48.906,105.732c15.457,43.154,15.648,116.572,15.648,117.309c0,1.295,0.418,2.553,1.191,3.59
				l35.066,46.977c-2.639,1.742-4.715,3.93-6.211,6.551c-2.83,4.951-2.793,10.131-2.201,13.76l-4.041,2.938
				c-2.084,1.516-2.967,4.191-2.195,6.648c0.77,2.459,3.023,4.15,5.6,4.203c8.217,0.186,31.75,2.965,41.785,13.477
				c10.682,11.191,22.346,43.945,25.938,55.623c0.775,2.518,3.102,4.234,5.734,4.234h105.334c2.904,0,5.393-2.082,5.906-4.941
				c0.512-2.859-1.098-5.676-3.822-6.686l-32.793-12.145c-2.545-13.75-12.389-64.574-22.561-85.516
				c-11.467-23.609-54.16-79.338-55.971-81.699c-1.152-1.5-2.924-2.346-4.76-2.346c-0.131,0-0.264,0.004-0.395,0.012
				c-2.262-10.129-11.438-15.848-12.543-16.504c-0.936-0.557-1.994-0.842-3.063-0.842c-0.516,0-1.033,0.066-1.541,0.201
				c-0.426,0.113-0.834,0.271-1.219,0.471c-2.781-6.217-6.301-25.797-8.031-56.881c-1.732-31.102-0.887-61.672,2.205-79.781
				c7.002-41.014,7.324-87.998,7.336-89.979c0.01-2.021-0.998-3.912-2.684-5.031C865.695,943.425,809.549,906.505,766.338,906.505
				L766.338,906.505z"/>
		</g>
		
			<path fill="#19325A" stroke="#000000" stroke-width="6" stroke-linecap="round" stroke-linejoin="round" stroke-miterlimit="10" d="
			M722.377,933.005c0,0-120.879,178.49-123.879,179.49s-14,15-14,15l10,7l42,128l-28,17l8.592,28
			c-10.336-25.857-10.936-28.801-13.092-29.332c-6.25-1.543-10.107-1.092-14.75,2.707c-2.75,2.25-4.395,4.396-4.395,4.396
			s26.828,36.229,32.236,56.229s23.408,42,23.408,42h154c0,0-10-3-25-26s-72-164-74-219l-7.75,0.5c0,0,17-6,17-11s-9-10-9-10
			l-14,1.5c0,0,21.5-3,22.5-15.5c0,0-15.5,2.5-26.5-8.5c0,0,15,10,27,2s97.5-80.5,136.5-86"/>
	</g>
	<g id="Head">
		
			<polygon fill="#E4DDC9" stroke="#000000" stroke-width="6" stroke-linecap="round" stroke-linejoin="round" stroke-miterlimit="10" points="
			853.498,528.497 853.498,588.497 774.525,627.497 782.498,568.497 826.498,518.497 		"/>
		
			<path fill="#2E2C26" stroke="#000000" stroke-width="6" stroke-linecap="round" stroke-linejoin="round" stroke-miterlimit="10" d="
			M682.498,367.497c0,0,45-29,102-18s70,35,73,80s0,83,0,83l14,25l-79-11.598c0,0-143-80.402-110-156.402"/>
		
			<path fill="#2E2C26" stroke="#000000" stroke-width="6" stroke-linecap="round" stroke-linejoin="round" stroke-miterlimit="10" d="
			M656.498,452.497c0,0-30.816-25-39.408-99l34.393,22c0,0,8.016-34,38.016-60c0,0-5,113,28,127S656.498,452.497,656.498,452.497z"
			/>
		<g>
			<path fill="#E4DDC9" d="M699.498,624.997c-0.674,0-1.34-0.227-1.881-0.662c-0.543-0.436-13.439-11-26.213-38.317
				c-11.648-24.915-25.428-69.262-24.906-139.043c0.008-1.184,0.713-2.252,1.797-2.726c1.162-0.508,29.322-12.447,104.342-12.447
				c5.502,0,11.197,0.066,16.93,0.197c0.818,0.019,1.594,0.371,2.146,0.976c0.889,0.974,21.785,24.055,21.785,41.023
				c0,0.322-0.053,0.643-0.154,0.949l-7.334,22.002l16.332,12.894c2.557-0.518,9.711-2.641,18.035-10.965
				c11.676-11.677,18.418-15.369,18.699-15.521c0.439-0.237,0.93-0.358,1.422-0.358c0.297,0,0.596,0.044,0.885,0.133
				c0.768,0.237,1.408,0.772,1.777,1.486c0.605,1.167,14.619,28.889-3.182,55.068c-0.531,0.78-1.396,1.265-2.338,1.31l-16.621,0.792
				l10.219,22.994c0.629,1.412,0.08,3.07-1.264,3.83c-0.463,0.261-47.172,26.468-129.457,56.209
				C700.186,624.938,699.84,624.997,699.498,624.997z"/>
			<path d="M752.637,434.802c5.379,0,10.99,0.062,16.861,0.195c0,0,21,23,21,39l-8,24l19,15c0,0,9.5-0.5,21-12s18-15,18-15
				s14,27-3,52l-21,1l12,27c0,0-46,26-129,56c0,0-51-41-50-175C649.498,446.997,677.381,434.802,752.637,434.802 M752.637,428.802
				c-75.641,0-104.357,12.18-105.543,12.698c-2.17,0.949-3.578,3.084-3.596,5.452c-0.23,30.983,2.297,59.622,7.512,85.122
				c4.201,20.534,10.148,39.111,17.678,55.214c13.064,27.94,26.486,38.931,27.051,39.385c1.082,0.87,2.412,1.324,3.76,1.324
				c0.686,0,1.375-0.117,2.039-0.357c82.52-29.826,129.449-56.157,129.912-56.419c2.691-1.521,3.787-4.836,2.531-7.661
				l-8.439-18.987l12.242-0.583c1.883-0.09,3.615-1.06,4.676-2.619c18.797-27.642,4.004-56.904,3.365-58.136
				c-0.74-1.427-2.021-2.498-3.559-2.972c-0.578-0.178-1.174-0.267-1.768-0.267c-0.984,0-1.963,0.242-2.846,0.717
				c-0.744,0.401-7.615,4.257-19.396,16.04c-6.674,6.673-12.328,9.022-15.189,9.837l-13.545-10.693l6.668-20.003
				c0.205-0.612,0.309-1.252,0.309-1.897c0-17.813-20.26-40.516-22.57-43.046c-1.104-1.21-2.656-1.915-4.293-1.953
				C763.879,428.868,758.16,428.802,752.637,428.802L752.637,428.802z"/>
		</g>
		<path fill="#FFFFFF" stroke="#000000" stroke-miterlimit="10" d="M687.914,507.414c0,0-0.334,5.947,1.334,8.39
			c1.666,2.443,9.334,3.943,9.166,0.776c-0.166-3.167-1.666-14.833-1.666-14.833L687.914,507.414z"/>
		<path d="M686.248,503.247c0,0-1,18,9.5,18s12.5-8.05,12.5-16.5s-1.5-15-1.5-15l-11.5,8.5v11.5c0,2.917-0.25,6.057-2.584,6.057
			c-2.332,0-3.332-3.14-3.332-6.14s-0.334-7.333-0.334-7.333L686.248,503.247z"/>
		<path fill="none" stroke="#000000" stroke-width="6" stroke-linecap="round" stroke-miterlimit="10" d="M691.998,579.331
			c0,0,9.334-5.333,26-4"/>
		<path fill="none" stroke="#000000" stroke-width="6" stroke-linecap="round" stroke-linejoin="round" stroke-miterlimit="10" d="
			M837.748,499.247c0,0-10,6.5-10,25c0,0,0.869-9.5,10-9.5"/>
		<path d="M665.248,488.747c0,0,0,28.5,10,27s62.5-44.5,72.25-42.5s14.75,4.5,14.75,4.5v-8c0,0-3-15-24.5-12
			c0,0-51.389,45-60.195,45C668.748,502.747,665.248,488.747,665.248,488.747z"/>
	</g>
	<g id="Right_Arm">
		
			<path fill="#E4DDC9" stroke="#000000" stroke-width="6" stroke-linecap="round" stroke-linejoin="round" stroke-miterlimit="10" d="
			M774.525,678.33c0,0-20.525,80-31.193,128c-10.666,48,8,71.915,8,71.915l40-99.957L774.525,678.33z"/>
	</g>
	<g id="Body">
		
			<path fill="#EAEAEA" stroke="#000000" stroke-width="6" stroke-linecap="round" stroke-linejoin="round" stroke-miterlimit="10" d="
			M751.332,946.663c0,0-26-3.334-40-8.668c0,0,1.332-24.666,13.332-38.666C724.664,899.329,747.332,927.995,751.332,946.663z"/>
		
			<path fill="#EAEAEA" stroke="#000000" stroke-width="6" stroke-linecap="round" stroke-linejoin="round" stroke-miterlimit="10" d="
			M811.498,633.497l51-51c0,0,20,37,21,93s10,142.998,9,153.998s-24,108-9,139c0,0-84-2-140-18c0,0-19-52-30-52l15-7
			c0,0,33-85,38-106.999s4.5-77.999,4.5-77.999S748.498,638.497,811.498,633.497z"/>
		<g>
			<path fill="#EAEAEA" d="M783.498,673.497c-0.77,0-1.537-0.294-2.121-0.879l-36-36c-0.68-0.678-0.992-1.64-0.844-2.587
				c0.15-0.947,0.742-1.767,1.596-2.204l120-61.5c0.438-0.224,0.906-0.331,1.367-0.331c1.053,0,2.07,0.556,2.619,1.535l7,12.5
				c0.674,1.205,0.439,2.715-0.57,3.658l-91,85C784.969,673.229,784.232,673.497,783.498,673.497z"/>
			<path d="M867.498,572.997l7,12.5l-91,85l-36-36L867.498,572.997 M867.492,566.996c-0.922,0-1.855,0.213-2.73,0.661l-120,61.5
				c-1.707,0.875-2.893,2.513-3.191,4.408c-0.297,1.895,0.328,3.818,1.686,5.174l36,36c1.168,1.169,2.705,1.757,4.242,1.757
				c1.469,0,2.939-0.537,4.096-1.615l91-85c2.018-1.886,2.488-4.906,1.139-7.316l-7-12.5
				C871.637,568.107,869.598,566.996,867.492,566.996L867.492,566.996z"/>
		</g>
		
			<path fill="#FFFFFF" stroke="#000000" stroke-width="6" stroke-linecap="round" stroke-linejoin="round" stroke-miterlimit="10" d="
			M808.248,744.247c0,0,11-6.5,26-1.5"/>
	</g>
	<g id="Left_Arm">
		
			<path fill="#EAEAEA" stroke="#000000" stroke-width="6" stroke-linecap="round" stroke-linejoin="round" stroke-miterlimit="10" d="
			M908.348,715.091c0,0,35.025-25.427,33.672-108.094L898,617.664L908.348,715.091z"/>
		
			<path fill="#E4DDC9" stroke="#000000" stroke-width="6" stroke-linecap="round" stroke-linejoin="round" stroke-miterlimit="10" d="
			M901,612.997l71.748,28L979,661.044c0,0-8.461-43.047,4.77-54.047s52.084-18.242,61-44.547s8.23-56.953,8.23-56.953l67-6.25
			c0,0-6.275,36.75-30.137,98.75c-23.863,62-34.641,101-59.252,98l4.389-5.25c0,0-62.5,11.323-152,5.412L901,612.997z"/>
		
			<path fill="#EAEAEA" stroke="#000000" stroke-width="6" stroke-linecap="round" stroke-linejoin="round" stroke-miterlimit="10" d="
			M834.248,661.664l-15.945-23.676c0,0,26.363-42.99,83.697-64.99c0,0,16,15.333,24,36.667l16.02-2.667
			c0,0-42.434,34.284-33.672,108.094c0,0-13.178-9.427-62.43-17.427"/>
	</g>
	<g id="Weapon">
		
			<path fill="#404040" stroke="#000000" stroke-width="6" stroke-linecap="round" stroke-linejoin="round" stroke-miterlimit="10" d="
			M1088.939,436.285c0,0,2.791,34.517-1.334,75.646s-15.619,90.816-15.619,90.816s-35.021-0.951-41.375-19.34
			c0,0,17.338-23.171,19.365-31.94c2.029-8.769,13.516-45.115,9.275-106.653L1088.939,436.285z"/>
		
			<path fill="#404040" stroke="#000000" stroke-width="6" stroke-linecap="round" stroke-linejoin="round" stroke-miterlimit="10" d="
			M1093.68,425.064l0.07,36.967l-38.779,1.293c0,0-13.402-17.47-3.424-42.875L1093.68,425.064z"/>
		<g>
			<path fill="#404040" d="M1058.012,428.025c-0.389,0-0.779-0.076-1.148-0.229c-127.15-52.692-96.016-159.098-73.283-236.792
				c1.672-5.713,3.252-11.11,4.758-16.437c8.184-28.928,28.969-49.745,61.775-61.871c26.594-9.83,54.559-11.297,68.861-11.297
				c6.545,0,10.469,0.298,10.633,0.311c0.867,0.067,1.662,0.507,2.18,1.207s0.705,1.588,0.516,2.437l-71.363,320.324
				c-0.191,0.865-0.758,1.601-1.543,2.009C1058.963,427.912,1058.488,428.025,1058.012,428.025z"/>
			<path d="M1118.975,104.399c6.504,0,10.4,0.302,10.4,0.302l-71.363,320.324c-133.623-55.374-89.314-170.003-66.787-249.641
				C1009.617,110.368,1090.059,104.399,1118.975,104.399 M1118.975,98.399c-14.502,0-42.871,1.492-69.902,11.483
				c-15.174,5.608-28.043,13.199-38.248,22.559c-12.264,11.246-20.799,25.145-25.373,41.309c-1.502,5.314-3.08,10.704-4.75,16.411
				c-11.754,40.174-25.078,85.708-19.76,128.989c2.922,23.765,11.457,44.75,25.367,62.372
				c15.791,20.003,39.143,36.504,69.406,49.046c0.736,0.305,1.518,0.457,2.297,0.457c0.953,0,1.902-0.227,2.768-0.676
				c1.572-0.817,2.703-2.289,3.09-4.019l71.363-320.324c0.377-1.698,0-3.476-1.033-4.874c-1.035-1.398-2.627-2.278-4.361-2.413
				C1129.67,98.706,1125.633,98.399,1118.975,98.399L1118.975,98.399z"/>
		</g>
		<g>
			<path fill="#646464" d="M1076.234,430.631c-4.844,0-9.672-0.549-14.35-1.631c-26.701-6.176-47.727-29.089-59.205-64.518
				c-11.307-34.897-12.027-77.919-2.027-121.141c9.088-39.288,26.436-75.219,48.846-101.176
				c22.473-26.029,48.521-40.364,73.348-40.364c4.844,0,9.674,0.549,14.352,1.631c26.699,6.176,47.725,29.089,59.203,64.518
				c11.307,34.897,12.027,77.92,2.029,121.143c-9.088,39.287-26.436,75.218-48.848,101.175
				C1127.109,416.296,1101.061,430.631,1076.234,430.631z"/>
			<path d="M1122.846,104.801c4.59,0,9.152,0.508,13.676,1.554c52.998,12.26,79.408,93.772,58.984,182.062
				c-18.68,80.755-70.08,139.215-119.271,139.215c-4.59,0-9.152-0.508-13.674-1.554c-53-12.26-79.41-93.772-58.986-182.06
				C1022.256,163.261,1073.654,104.806,1122.846,104.801 M1122.854,98.801c-0.002,0-0.008,0-0.008,0
				c-25.713,0.002-52.568,14.708-75.619,41.405c-22.723,26.319-40.301,62.706-49.498,102.459
				c-10.119,43.744-9.375,87.334,2.098,122.741c11.814,36.47,33.615,60.093,61.381,66.516c4.9,1.133,9.955,1.708,15.027,1.708
				c25.711,0,52.566-14.704,75.619-41.403c22.723-26.319,40.303-62.707,49.498-102.459c10.119-43.745,9.375-87.336-2.096-122.744
				c-11.816-36.471-33.615-60.093-61.383-66.516C1132.973,99.375,1127.92,98.801,1122.854,98.801L1122.854,98.801z"/>
		</g>
	</g>
	<g id="Left_Hand">
		
			<path fill="#E4DDC9" stroke="#000000" stroke-width="6" stroke-linecap="round" stroke-linejoin="round" stroke-miterlimit="10" d="
			M1024.75,478.247c0,0-7,20.5-7,29.5s0,28.5,26.5,22.5S1024.75,478.247,1024.75,478.247z"/>
		
			<path fill="#E4DDC9" stroke="#000000" stroke-width="6" stroke-linecap="round" stroke-linejoin="round" stroke-miterlimit="10" d="
			M1092.443,542.664c-35.523,4.75-55.775-2.167-55.775-2.167c4-19.833-8-40.5-10.668-45.167c-2.666-4.667-3.332-9.753-3.332-9.753
			l54.666-3.361c-3.334-2.448-58,1.781-58,1.781c-6-4.667,0-26.646,0-26.646s49.334-7.354,68.666-8.687
			c19.334-1.333,30.25,31.5,32,40.083c1.695,8.314-3.65,27.057-3.65,27.057l-7.273,26.415"/>
		
			<path fill="#E4DDC9" stroke="#000000" stroke-width="6" stroke-linecap="round" stroke-linejoin="round" stroke-miterlimit="10" d="
			M1088,448.664c0,0,13.334,8,7.334,20S1088,524.247,1088,524.247"/>
	</g>
</g>
<g id="Attack">
</g>
<g id="Hurt">
</g>
<g id="Layer_5" display="none">
</g>
<g id="Labels">
</g>
</svg>
